<svg id="eARErs3gGMW1" xmlns="http://www.w3.org/2000/svg" xmlns:xlink="http://www.w3.org/1999/xlink" viewBox="0 0 300 400" shape-rendering="geometricPrecision" text-rendering="geometricPrecision" width="300" height="400"><defs><filter id="eARErs3gGMW3-filter" x="-400%" width="600%" y="-400%" height="600%"><feGaussianBlur id="eARErs3gGMW3-filter-blur-0" stdDeviation="20,20" result="result"/></filter><filter id="eARErs3gGMW14-filter" x="-400%" width="600%" y="-400%" height="600%"><feGaussianBlur id="eARErs3gGMW14-filter-blur-0" stdDeviation="10,10" result="result"/></filter><filter id="eARErs3gGMW26-filter" x="-400%" width="600%" y="-400%" height="600%"><feGaussianBlur id="eARErs3gGMW26-filter-blur-0" stdDeviation="10,10" result="result"/></filter><linearGradient id="eARErs3gGMW47-fill" x1="119.346" y1="86.0857" x2="160.817" y2="86.0857" spreadMethod="pad" gradientUnits="userSpaceOnUse" gradientTransform="translate(0 0)"><stop id="eARErs3gGMW47-fill-0" offset="0%" stop-color="#ff5343"/><stop id="eARErs3gGMW47-fill-1" offset="100%" stop-color="#ff8175"/></linearGradient><linearGradient id="eARErs3gGMW49-fill" x1="109.234" y1="91.135" x2="150.705" y2="91.135" spreadMethod="pad" gradientUnits="userSpaceOnUse" gradientTransform="translate(0 0)"><stop id="eARErs3gGMW49-fill-0" offset="0%" stop-color="#ff5343"/><stop id="eARErs3gGMW49-fill-1" offset="100%" stop-color="#ff8175"/></linearGradient><linearGradient id="eARErs3gGMW51-fill" x1="100.513" y1="96.1848" x2="141.985" y2="96.1848" spreadMethod="pad" gradientUnits="userSpaceOnUse" gradientTransform="translate(0 0)"><stop id="eARErs3gGMW51-fill-0" offset="0%" stop-color="#ff5343"/><stop id="eARErs3gGMW51-fill-1" offset="100%" stop-color="#ff8175"/></linearGradient></defs><g transform="translate(13.5 18.180863)"><g id="eARErs3gGMW3" opacity="0" filter="url(#eARErs3gGMW3-filter)"><path d="M134.923,220.269l111.344,63.542-111.344,63.541-111.3743-63.58L134.923,220.269Z"/></g><g id="eARErs3gGMW5" transform="matrix(0 0 0 0 134.907349 255.778008)"><path d="M134.921,284.113l94.154-53.742v50.727l-94.154,53.8v-50.785Z" fill="#b4b4c0"/><path d="M175.668,260.846l12.629-7.18v50.736l-12.629,7.215v-50.771Z" fill="#9e9eae"/><path d="M40.7654,230.369L134.92,284.113v50.782L40.7654,280.606v-50.237Z" fill="#cacad3"/><path d="M134.92,176.658l94.155,53.732-94.155,53.733-94.1803-53.765l94.1803-53.7Z" fill="#e1e1e6"/><path d="M81.8433,206.932l12.6294-7.282l93.8243,54.098-12.63,7.125-93.8237-53.941Z" fill="#cacad3"/><g><path d="M91.9767,276.841l-15.0496-8.678c-.8553-.493-1.6756-.574-2.2804-.225-.6048.348-.9446,1.098-.9446,2.085v12.396c0,.986.3398,2.128.9446,3.174s1.4251,1.911,2.2804,2.404l15.0496,8.678c.8553.493,1.6755.574,2.2803.225.6048-.348.9446-1.098.9446-2.085v-12.396c0-.986-.3398-2.128-.9446-3.174s-1.425-1.911-2.2803-2.404Zm-.4408,2.225l-6.3208,3.644c-.0999.059-.2188.082-.3498.07-.131-.013-.2715-.061-.4134-.143s-.2825-.195-.4135-.334c-.1309-.138-.2498-.299-.3498-.473l-6.3208-10.933l14.1681,8.169Zm1.5157,14.51c0,.328-.1132.578-.3148.695-.2016.116-.475.089-.7601-.076l-15.0496-8.677c-.2851-.164-.5586-.453-.7602-.801-.2016-.349-.3148-.73-.3148-1.058v-11.889l6.3208,10.934c.6047,1.045,1.4244,1.909,2.279,2.402.8546.492,1.6742.574,2.2789.226l6.3208-3.644v11.888Z" fill="#9e9eae"/></g><path d="M221.822,271.569c-2.017,1.207-3.632,3.985-3.632,6.249v4.222c0,.56.411.818.91.53.265-.152.509-.425.676-.719.049-.094.137-.123.166-.063.147.344.519.437.95.189.372-.214.704-.637.871-1.063.049-.028.098-.056.137-.079.039-.022.088-.051.137-.079.176.239.499.273.871.058.431-.248.803-.77.95-1.284.029-.094.117-.166.166-.129.166.113.411.093.675-.059.5-.288.911-1.02.911-1.58v-4.145c-.01-2.325-1.713-3.289-3.788-2.048Zm-.598,4.577c0,.351-.274.795-.597.949-.284.13-.489-.037-.489-.345v-.681c0-.319.205-.724.489-.909.323-.22.597-.092.597.26v.726Zm2.418-1.394c0,.351-.274.795-.597.948-.284.131-.489-.025-.489-.344v-.671c0-.318.205-.723.489-.919.323-.22.587-.086.587.266v.725l.01-.005Z" opacity="0.5" fill="#8a8a99"/></g><g id="eARErs3gGMW14" opacity="0" filter="url(#eARErs3gGMW14-filter)"><path d="M134.92,180.17l87.998,50.219-87.998,50.219-88.0226-50.249L134.92,180.17Z" fill-opacity="0.4"/></g><g id="eARErs3gGMW16" transform="matrix(0 0 0 0 134.907208 197.431999)"><path d="M134.921,225.767l94.154-53.743v50.728l-94.154,53.8v-50.785Z" fill="#b4b4c0"/><path d="M175.668,202.5l12.629-7.18v50.735l-12.629,7.215v-50.77Z" fill="#9e9eae"/><path d="M40.7651,172.023L134.92,225.767v50.782L40.7651,222.26v-50.237Z" fill="#cacad3"/><g><path d="M134.92,118.312l94.155,53.732-94.155,53.732-94.1806-53.765L134.92,118.312Z" fill="#e1e1e6"/><path d="M81.8433,148.586l12.6294-7.282l93.8243,54.098-12.63,7.126-93.8237-53.942Z" fill="#cacad3"/></g><g><path d="M91.9764,218.494l-15.0496-8.678c-.8553-.493-1.6756-.574-2.2803-.225-.6048.349-.9446,1.099-.9446,2.085v12.396c0,.987.3398,2.128.9446,3.175.6047,1.046,1.425,1.91,2.2803,2.404l15.0496,8.677c.8553.493,1.6756.574,2.2804.226.6048-.349.9445-1.099.9445-2.085v-12.397c0-.986-.3397-2.128-.9445-3.174s-1.4251-1.911-2.2804-2.404Zm-.4407,2.225l-6.3209,3.645c-.0999.058-.2188.082-.3498.069-.131-.012-.2715-.061-.4134-.143s-.2824-.195-.4134-.334c-.131-.138-.2499-.299-.3498-.473L77.3676,212.55l14.1681,8.169Zm1.5157,14.51c0,.329-.1133.579-.3149.695s-.475.089-.7601-.075l-15.0496-8.678c-.2851-.164-.5585-.452-.7601-.801s-.3149-.729-.3149-1.058v-11.888l6.3209,10.933c.6046,1.045,1.4243,1.909,2.2789,2.402s1.6743.574,2.279.226l6.3208-3.644v11.888Z" fill="#9e9eae"/></g><path d="M221.821,212.798c-2.016,1.207-3.631,3.985-3.631,6.249v4.222c0,.56.411.818.91.53.264-.152.509-.425.675-.719.049-.094.138-.123.167-.063.147.344.519.437.949.189.372-.214.705-.637.872-1.063.049-.028.097-.056.137-.079.039-.022.088-.051.137-.079.176.239.499.273.871.058.431-.248.802-.77.949-1.284.03-.094.118-.166.167-.129.166.113.411.093.675-.059.499-.288.91-1.02.91-1.58v-4.145c-.009-2.325-1.713-3.289-3.788-2.048Zm-.597,4.577c0,.351-.274.795-.597.949-.284.13-.489-.037-.489-.345v-.681c0-.319.205-.724.489-.909.323-.22.597-.092.597.26v.726Zm2.418-1.394c0,.351-.274.795-.597.948-.284.131-.49-.025-.49-.344v-.671c0-.318.206-.723.49-.919.323-.22.587-.086.587.266v.725l.01-.005Z" opacity="0.5" fill="#8a8a99"/></g><g id="eARErs3gGMW26" opacity="0" filter="url(#eARErs3gGMW26-filter)"><path d="M134.919,120.84l87.999,50.219-87.999,50.219-88.0219-50.249L134.919,120.84Z" fill="#2c2c40" fill-opacity="0.4"/></g><g id="eARErs3gGMW28" transform="matrix(0 0 0 0 134.907101 138.0691)"><path d="M134.92,166.416l94.155-53.743v50.727L134.92,217.2v-50.784Z" fill="#b4b4c0"/><path d="M175.667,143.148l12.63-7.179v50.735l-12.63,7.215v-50.771Z" fill="#9e9eae"/><path d="M40.7649,112.671L134.92,166.416v50.781L40.7649,162.909v-50.238Z" fill="#cacad3"/><path d="M134.92,58.9606l94.155,53.7324-94.155,53.732L40.7392,112.66L134.92,58.9606Z" fill="#31313b"/><path d="M40.753067,112.649535L134.929,58.9382v41.4548L79.19604,134.59932L40.753067,112.649535Z" fill="#3a3a45"/><path d="M134.929,58.9674l94.191741,53.697845-36.029834,20.571335L134.929,99.9923v-41.0249Z" fill="#3a3a45"/><g><path d="M91.9762,159.142l-15.0496-8.677c-.8553-.493-1.6756-.574-2.2804-.226-.6048.349-.9445,1.099-.9445,2.085v12.397c0,.986.3397,2.128.9445,3.174s1.4251,1.911,2.2804,2.404l15.0496,8.677c.8553.494,1.6755.575,2.2803.226s.9446-1.099.9446-2.085v-12.396c0-.987-.3398-2.128-.9446-3.175-.6048-1.046-1.425-1.91-2.2803-2.404Zm-.4408,2.225l-6.3208,3.645c-.0999.059-.2188.082-.3498.07-.131-.013-.2715-.062-.4134-.143-.1419-.082-.2824-.196-.4134-.334-.131-.139-.2499-.299-.3499-.473l-6.3208-10.934l14.1681,8.169Zm1.5157,14.51c0,.329-.1132.579-.3148.695-.2016.117-.475.09-.7601-.075L76.9266,167.82c-.2851-.165-.5586-.453-.7601-.802-.2016-.348-.3149-.729-.3149-1.058v-11.888l6.3208,10.934c.6047,1.045,1.4244,1.909,2.279,2.401.8546.493,1.6742.575,2.2789.227l6.3208-3.645v11.888Z" fill="#9e9eae"/></g><path d="M221.821,154.028c-2.016,1.207-3.632,3.985-3.632,6.25v4.221c0,.561.412.819.911.531.264-.153.509-.426.675-.72.049-.094.137-.123.167-.063.146.345.518.438.949.19.372-.215.705-.638.871-1.063.049-.029.098-.057.137-.079.04-.023.088-.051.137-.079.177.239.5.272.872.058.43-.248.802-.771.949-1.284.029-.094.118-.167.166-.129.167.113.412.093.676-.06.499-.288.91-1.019.91-1.58v-4.144c-.01-2.325-1.713-3.289-3.788-2.049Zm-.597,4.577c0,.352-.274.796-.597.949-.284.131-.49-.037-.49-.344v-.682c0-.319.206-.723.49-.909.323-.219.597-.091.597.261v.725Zm2.418-1.394c0,.352-.274.796-.597.949-.284.131-.49-.026-.49-.344v-.671c0-.319.206-.723.49-.92.323-.219.587-.086.587.266v.726l.01-.006Z" opacity="0.5" fill="#8a8a99"/><g transform="translate(0-59.375239)"><path id="eARErs3gGMW39" d="M81.89969,148.552795l93.882628,53.962584L134.92,225.776L40.7394,172.011l41.16029-23.458205Z" transform="translate(-.082394 0)" fill="#e1e1e6"/><path id="eARErs3gGMW40" d="M81.89969,148.552795l93.882628,53.962584-40.875898,23.466555-93.839596-54.128083L81.89969,148.552795Z" transform="translate(53.395894-30.559022)" fill="#e1e1e6"/><path id="eARErs3gGMW41" d="M81.8433,148.586l12.6294-7.282l93.8243,54.098-12.63,7.126-93.8237-53.942Z" fill="#cacad3"/></g></g><path id="eARErs3gGMW42" d="M13.9587,70.7344L108.126,16.4383l26.802,42.5375L40.7609,112.812L13.9587,70.7344Z" transform="matrix(0 0 0 0 88.737668 85.625282)" fill="#9292a2"/><path id="eARErs3gGMW43" d="M163.175,16.2863l94.196,54.3124-28.296,42.0773-94.146-53.6704l28.246-42.7193Z" transform="matrix(0 0 0 0 178.218832 83.22131)" fill="#9292a2"/><path id="eARErs3gGMW44" d="M178.799,168.206L273,113.891l-43.925-1.79-94.201,54.316l43.925,1.789Z" transform="matrix(0 0 0 0 183.306479 138.292558)" fill="#9292a2"/><path id="eARErs3gGMW45" d="M0,110.766l94.1096,54.262l40.7644,1.367-94.1099-54.263L0,110.766Z" transform="matrix(0 0 0 0 81.234525 135.591495)" fill="#9292a2"/><g id="eARErs3gGMW46" transform="translate(0-18.041679)" opacity="0"><path d="M132.306,87.5802l2.592,1.4945c.687.3963,1.347.4615,1.833.1813.486-.2803.759-.8831.759-1.6758c0-.7928-.273-1.7105-.759-2.5513s-1.146-1.5358-1.833-1.9322l-2.592-1.4945c-.687-.3964-1.347-.4616-1.833-.1813s-.759.8831-.759,1.6758.273,1.7104.759,2.5512s1.146,1.5359,1.833,1.9323Zm0,5.9779c-.687-.3963-1.347-.4615-1.833-.1813s-.759.8831-.759,1.6758c0,.7928.273,1.7105.759,2.5513s1.146,1.5359,1.833,1.9322l15.552,8.9669c.687.396,1.346.462,1.832.181.487-.28.76-.883.76-1.675c0-.793-.273-1.711-.76-2.552-.486-.84-1.145-1.536-1.832-1.932l-15.552-8.9669Zm28.511,7.2929c-.027-.29-.079-.59-.155-.8964v-.269c-.125-.3792-.291-.7576-.492-1.1209L144.618,71.6638c-.215-.356-.459-.689-.726-.9864-.077-.0572-.156-.1025-.233-.1345-.264-.3259-.554-.6054-.856-.8219l-15.681-9.0417c-2.062-1.1891-4.04-1.3848-5.498-.544-1.459.8409-2.278,2.6493-2.278,5.0275v41.8462c0,2.378.819,5.131,2.278,7.653c1.458,2.523,3.436,4.608,5.498,5.797l25.92,14.945c2.062,1.189,4.04,1.385,5.498.544s2.277-2.649,2.277-5.028v-29.889c0,0,0,0,0-.18ZM145.266,81.3332l6.713,11.6122-4.121-2.3762c-.688-.3964-1.347-1.0915-1.833-1.9323s-.759-1.7585-.759-2.5512v-4.7525Zm10.368,46.5978c0,.793-.274,1.396-.76,1.676-.486.281-1.145.215-1.832-.181l-25.92-14.945c-.687-.396-1.347-1.091-1.833-1.932s-.759-1.759-.759-2.551v-41.8463c0-.7927.273-1.3955.759-1.6758.486-.2802,1.146-.215,1.833.1814l12.96,7.4724v8.967c0,2.3782.819,5.1313,2.277,7.6538c1.459,2.5224,3.436,4.6075,5.499,5.7966l7.776,4.4839v26.9Zm-7.776-13.45l-15.552-8.967c-.687-.396-1.347-.461-1.833-.181s-.759.883-.759,1.676c0,.792.273,1.71.759,2.551s1.146,1.536,1.833,1.932l15.552,8.967c.687.396,1.346.462,1.832.181.487-.28.76-.883.76-1.675c0-.793-.273-1.711-.76-2.552-.486-.841-1.145-1.536-1.832-1.932Z" fill="url(#eARErs3gGMW47-fill)"/></g><g id="eARErs3gGMW48" transform="translate(0-23.090839)" opacity="0"><path d="M122.194,92.6295l2.592,1.4945c.687.3963,1.346.4616,1.832.1813s.76-.8831.76-1.6758-.274-1.7105-.76-2.5513-1.145-1.5358-1.832-1.9322l-2.592-1.4945c-.688-.3964-1.347-.4616-1.833-.1813s-.759.8831-.759,1.6758.273,1.7104.759,2.5513c.486.8408,1.145,1.5358,1.833,1.9322Zm0,5.978c-.688-.3964-1.347-.4616-1.833-.1814s-.759.8831-.759,1.6759c0,.793.273,1.71.759,2.551s1.145,1.536,1.833,1.932l15.551,8.967c.688.397,1.347.462,1.833.182.486-.281.759-.883.759-1.676s-.273-1.711-.759-2.551c-.486-.841-1.145-1.536-1.833-1.933l-15.551-8.9665Zm28.511,7.2935c-.027-.291-.079-.591-.155-.897v-.269c-.125-.379-.291-.758-.493-1.121L134.505,76.7131c-.214-.356-.459-.689-.725-.9863-.078-.0573-.156-.1026-.234-.1345-.263-.326-.554-.6054-.855-.822L117.01,65.7286c-2.063-1.1891-4.04-1.3848-5.499-.5439-1.458.8408-2.277,2.6492-2.277,5.0274v41.8459c0,2.378.819,5.131,2.277,7.654c1.459,2.522,3.436,4.607,5.499,5.796l25.919,14.945c2.063,1.189,4.04,1.385,5.499.544c1.458-.841,2.277-2.649,2.277-5.027v-29.89c0,0,0,0,0-.179ZM135.153,86.3825l6.714,11.6122-4.122-2.3762c-.687-.3964-1.346-1.0914-1.832-1.9323-.486-.8408-.76-1.7585-.76-2.5512v-4.7525Zm10.368,46.5985c0,.793-.273,1.395-.759,1.676-.486.28-1.145.215-1.833-.182L117.01,119.53c-.688-.396-1.347-1.091-1.833-1.932s-.759-1.758-.759-2.551v-41.8459c0-.7928.273-1.3956.759-1.6758.486-.2803,1.145-.2151,1.833.1813l12.96,7.4724v8.967c0,2.3782.819,5.1313,2.277,7.6538c1.458,2.5224,3.436,4.6072,5.498,5.7962l7.776,4.484v26.901Zm-7.776-13.451l-15.551-8.967c-.688-.396-1.347-.461-1.833-.181s-.759.883-.759,1.676.273,1.71.759,2.551s1.145,1.536,1.833,1.932l15.551,8.967c.688.397,1.347.462,1.833.182.486-.281.759-.883.759-1.676s-.273-1.711-.759-2.551c-.486-.841-1.145-1.536-1.833-1.933Z" fill="url(#eARErs3gGMW49-fill)"/></g><g id="eARErs3gGMW50" transform="translate(0-28.140739)" opacity="0"><path d="M113.473,97.6793l2.592,1.4945c.688.3963,1.347.4616,1.833.1813s.759-.8831.759-1.6758-.273-1.7105-.759-2.5513-1.145-1.5358-1.833-1.9322l-2.592-1.4945c-.687-.3964-1.346-.4616-1.833-.1813-.486.2803-.759.8831-.759,1.6758s.273,1.7105.759,2.5513c.487.8408,1.146,1.5358,1.833,1.9322Zm0,5.9777c-.687-.396-1.346-.461-1.833-.181-.486.28-.759.883-.759,1.676c0,.792.273,1.71.759,2.551.487.841,1.146,1.536,1.833,1.932l15.552,8.967c.687.397,1.347.462,1.833.182.486-.281.759-.884.759-1.676c0-.793-.273-1.711-.759-2.552-.486-.84-1.146-1.535-1.833-1.932l-15.552-8.967Zm28.512,7.293c-.027-.29-.079-.59-.156-.896v-.269c-.124-.38-.291-.758-.492-1.121L125.785,81.7629c-.214-.356-.459-.689-.726-.9863-.077-.0573-.156-.1026-.233-.1345-.263-.326-.554-.6054-.855-.822l-15.682-9.0417c-2.062-1.1891-4.04-1.3848-5.498-.5439s-2.278,2.6492-2.278,5.0274v41.8461c0,2.378.82,5.131,2.278,7.653c1.458,2.523,3.436,4.608,5.498,5.797l25.92,14.945c2.062,1.189,4.04,1.385,5.498.544s2.278-2.649,2.278-5.027v-29.89c0,0,0,0,0-.18ZM126.433,91.4323l6.713,11.6127-4.121-2.377c-.687-.396-1.347-1.0911-1.833-1.9319s-.759-1.7586-.759-2.5513v-4.7525Zm10.368,46.5987c0,.792-.273,1.395-.759,1.675-.486.281-1.146.215-1.833-.181l-25.92-14.945c-.687-.396-1.346-1.091-1.832-1.932-.487-.841-.76-1.759-.76-2.551v-41.8461c0-.7928.273-1.3956.76-1.6758.486-.2803,1.145-.2151,1.832.1813l12.96,7.4724v8.967c0,2.3782.819,5.1313,2.278,7.6542c1.458,2.522,3.436,4.607,5.498,5.796l7.776,4.484v26.901Zm-7.776-13.451l-15.552-8.967c-.687-.396-1.346-.461-1.833-.181-.486.28-.759.883-.759,1.676c0,.792.273,1.71.759,2.551.487.841,1.146,1.536,1.833,1.932l15.552,8.967c.687.397,1.347.462,1.833.181.486-.28.759-.883.759-1.675c0-.793-.273-1.711-.759-2.552-.486-.84-1.146-1.535-1.833-1.932Z" fill="url(#eARErs3gGMW51-fill)"/></g></g><script><![CDATA[!function(t,n){"object"==typeof exports&&"undefined"!=typeof module?module.exports=n():"function"==typeof define&&define.amd?define(n):((t="undefined"!=typeof globalThis?globalThis:t||self).__SVGATOR_PLAYER__=t.__SVGATOR_PLAYER__||{},t.__SVGATOR_PLAYER__["5c7f360c"]=n())}(this,(function(){"use strict";function t(t,n){var r=Object.keys(t);if(Object.getOwnPropertySymbols){var e=Object.getOwnPropertySymbols(t);n&&(e=e.filter((function(n){return Object.getOwnPropertyDescriptor(t,n).enumerable}))),r.push.apply(r,e)}return r}function n(n){for(var r=1;r<arguments.length;r++){var e=null!=arguments[r]?arguments[r]:{};r%2?t(Object(e),!0).forEach((function(t){u(n,t,e[t])})):Object.getOwnPropertyDescriptors?Object.defineProperties(n,Object.getOwnPropertyDescriptors(e)):t(Object(e)).forEach((function(t){Object.defineProperty(n,t,Object.getOwnPropertyDescriptor(e,t))}))}return n}function r(t){return(r="function"==typeof Symbol&&"symbol"==typeof Symbol.iterator?function(t){return typeof t}:function(t){return t&&"function"==typeof Symbol&&t.constructor===Symbol&&t!==Symbol.prototype?"symbol":typeof t})(t)}function e(t,n){if(!(t instanceof n))throw new TypeError("Cannot call a class as a function")}function i(t,n){for(var r=0;r<n.length;r++){var e=n[r];e.enumerable=e.enumerable||!1,e.configurable=!0,"value"in e&&(e.writable=!0),Object.defineProperty(t,e.key,e)}}function o(t,n,r){return n&&i(t.prototype,n),r&&i(t,r),t}function u(t,n,r){return n in t?Object.defineProperty(t,n,{value:r,enumerable:!0,configurable:!0,writable:!0}):t[n]=r,t}function a(t){return(a=Object.setPrototypeOf?Object.getPrototypeOf:function(t){return t.__proto__||Object.getPrototypeOf(t)})(t)}function l(t,n){return(l=Object.setPrototypeOf||function(t,n){return t.__proto__=n,t})(t,n)}function f(){if("undefined"==typeof Reflect||!Reflect.construct)return!1;if(Reflect.construct.sham)return!1;if("function"==typeof Proxy)return!0;try{return Boolean.prototype.valueOf.call(Reflect.construct(Boolean,[],(function(){}))),!0}catch(t){return!1}}function s(t,n,r){return(s=f()?Reflect.construct:function(t,n,r){var e=[null];e.push.apply(e,n);var i=new(Function.bind.apply(t,e));return r&&l(i,r.prototype),i}).apply(null,arguments)}function c(t,n){if(n&&("object"==typeof n||"function"==typeof n))return n;if(void 0!==n)throw new TypeError("Derived constructors may only return object or undefined");return function(t){if(void 0===t)throw new ReferenceError("this hasn't been initialised - super() hasn't been called");return t}(t)}function h(t,n,r){return(h="undefined"!=typeof Reflect&&Reflect.get?Reflect.get:function(t,n,r){var e=function(t,n){for(;!Object.prototype.hasOwnProperty.call(t,n)&&null!==(t=a(t)););return t}(t,n);if(e){var i=Object.getOwnPropertyDescriptor(e,n);return i.get?i.get.call(r):i.value}})(t,n,r||t)}function v(t){return function(t){if(Array.isArray(t))return y(t)}(t)||function(t){if("undefined"!=typeof Symbol&&null!=t[Symbol.iterator]||null!=t["@@iterator"])return Array.from(t)}(t)||function(t,n){if(!t)return;if("string"==typeof t)return y(t,n);var r=Object.prototype.toString.call(t).slice(8,-1);"Object"===r&&t.constructor&&(r=t.constructor.name);if("Map"===r||"Set"===r)return Array.from(t);if("Arguments"===r||/^(?:Ui|I)nt(?:8|16|32)(?:Clamped)?Array$/.test(r))return y(t,n)}(t)||function(){throw new TypeError("Invalid attempt to spread non-iterable instance.\nIn order to be iterable, non-array objects must have a [Symbol.iterator]() method.")}()}function y(t,n){(null==n||n>t.length)&&(n=t.length);for(var r=0,e=new Array(n);r<n;r++)e[r]=t[r];return e}var g=d(Math.pow(10,-6));function d(t){var n=arguments.length>1&&void 0!==arguments[1]?arguments[1]:6;if(Number.isInteger(t))return t;var r=Math.pow(10,n);return Math.round((+t+Number.EPSILON)*r)/r}function p(t,n){var r=arguments.length>2&&void 0!==arguments[2]?arguments[2]:g;return Math.abs(t-n)<r}var m=Math.PI/180;function b(t){return t}function w(t,n,r){var e=1-r;return 3*r*e*(t*e+n*r)+r*r*r}function A(){var t=arguments.length>0&&void 0!==arguments[0]?arguments[0]:0,n=arguments.length>1&&void 0!==arguments[1]?arguments[1]:0,r=arguments.length>2&&void 0!==arguments[2]?arguments[2]:1,e=arguments.length>3&&void 0!==arguments[3]?arguments[3]:1;return t<0||t>1||r<0||r>1?null:p(t,n)&&p(r,e)?b:function(i){if(i<=0)return t>0?i*n/t:0===n&&r>0?i*e/r:0;if(i>=1)return r<1?1+(i-1)*(e-1)/(r-1):1===r&&t<1?1+(i-1)*(n-1)/(t-1):1;for(var o,u=0,a=1;u<a;){var l=w(t,r,o=(u+a)/2);if(p(i,l))break;l<i?u=o:a=o}return w(n,e,o)}}function x(){return 1}function k(t){return 1===t?1:0}function S(){var t=arguments.length>0&&void 0!==arguments[0]?arguments[0]:1,n=arguments.length>1&&void 0!==arguments[1]?arguments[1]:0;if(1===t){if(0===n)return k;if(1===n)return x}var r=1/t;return function(t){return t>=1?1:(t+=n*r)-t%r}}var _=Math.sin,O=Math.cos,j=Math.acos,M=Math.asin,P=Math.tan,E=Math.atan2,I=Math.PI/180,R=180/Math.PI,F=Math.sqrt,N=function(){function t(){var n=arguments.length>0&&void 0!==arguments[0]?arguments[0]:1,r=arguments.length>1&&void 0!==arguments[1]?arguments[1]:0,i=arguments.length>2&&void 0!==arguments[2]?arguments[2]:0,o=arguments.length>3&&void 0!==arguments[3]?arguments[3]:1,u=arguments.length>4&&void 0!==arguments[4]?arguments[4]:0,a=arguments.length>5&&void 0!==arguments[5]?arguments[5]:0;e(this,t),this.m=[n,r,i,o,u,a],this.i=null,this.w=null,this.s=null}return o(t,[{key:"determinant",get:function(){var t=this.m;return t[0]*t[3]-t[1]*t[2]}},{key:"isIdentity",get:function(){if(null===this.i){var t=this.m;this.i=1===t[0]&&0===t[1]&&0===t[2]&&1===t[3]&&0===t[4]&&0===t[5]}return this.i}},{key:"point",value:function(t,n){var r=this.m;return{x:r[0]*t+r[2]*n+r[4],y:r[1]*t+r[3]*n+r[5]}}},{key:"translateSelf",value:function(){var t=arguments.length>0&&void 0!==arguments[0]?arguments[0]:0,n=arguments.length>1&&void 0!==arguments[1]?arguments[1]:0;if(!t&&!n)return this;var r=this.m;return r[4]+=r[0]*t+r[2]*n,r[5]+=r[1]*t+r[3]*n,this.w=this.s=this.i=null,this}},{key:"rotateSelf",value:function(){var t=arguments.length>0&&void 0!==arguments[0]?arguments[0]:0;if(t%=360){var n=_(t*=I),r=O(t),e=this.m,i=e[0],o=e[1];e[0]=i*r+e[2]*n,e[1]=o*r+e[3]*n,e[2]=e[2]*r-i*n,e[3]=e[3]*r-o*n,this.w=this.s=this.i=null}return this}},{key:"scaleSelf",value:function(){var t=arguments.length>0&&void 0!==arguments[0]?arguments[0]:1,n=arguments.length>1&&void 0!==arguments[1]?arguments[1]:1;if(1!==t||1!==n){var r=this.m;r[0]*=t,r[1]*=t,r[2]*=n,r[3]*=n,this.w=this.s=this.i=null}return this}},{key:"skewSelf",value:function(t,n){if(n%=360,(t%=360)||n){var r=this.m,e=r[0],i=r[1],o=r[2],u=r[3];t&&(t=P(t*I),r[2]+=e*t,r[3]+=i*t),n&&(n=P(n*I),r[0]+=o*n,r[1]+=u*n),this.w=this.s=this.i=null}return this}},{key:"resetSelf",value:function(){var t=arguments.length>0&&void 0!==arguments[0]?arguments[0]:1,n=arguments.length>1&&void 0!==arguments[1]?arguments[1]:0,r=arguments.length>2&&void 0!==arguments[2]?arguments[2]:0,e=arguments.length>3&&void 0!==arguments[3]?arguments[3]:1,i=arguments.length>4&&void 0!==arguments[4]?arguments[4]:0,o=arguments.length>5&&void 0!==arguments[5]?arguments[5]:0,u=this.m;return u[0]=t,u[1]=n,u[2]=r,u[3]=e,u[4]=i,u[5]=o,this.w=this.s=this.i=null,this}},{key:"recomposeSelf",value:function(){var t=arguments.length>0&&void 0!==arguments[0]?arguments[0]:null,n=arguments.length>1&&void 0!==arguments[1]?arguments[1]:null,r=arguments.length>2&&void 0!==arguments[2]?arguments[2]:null,e=arguments.length>3&&void 0!==arguments[3]?arguments[3]:null,i=arguments.length>4&&void 0!==arguments[4]?arguments[4]:null;return this.isIdentity||this.resetSelf(),t&&(t.x||t.y)&&this.translateSelf(t.x,t.y),n&&this.rotateSelf(n),r&&(r.x&&this.skewSelf(r.x,0),r.y&&this.skewSelf(0,r.y)),!e||1===e.x&&1===e.y||this.scaleSelf(e.x,e.y),i&&(i.x||i.y)&&this.translateSelf(i.x,i.y),this}},{key:"decompose",value:function(){var t=arguments.length>0&&void 0!==arguments[0]?arguments[0]:0,n=arguments.length>1&&void 0!==arguments[1]?arguments[1]:0,r=this.m,e=r[0]*r[0]+r[1]*r[1],i=[[r[0],r[1]],[r[2],r[3]]],o=F(e);if(0===o)return{origin:{x:d(r[4]),y:d(r[5])},translate:{x:d(t),y:d(n)},scale:{x:0,y:0},skew:{x:0,y:0},rotate:0};i[0][0]/=o,i[0][1]/=o;var u=r[0]*r[3]-r[1]*r[2]<0;u&&(o=-o);var a=i[0][0]*i[1][0]+i[0][1]*i[1][1];i[1][0]-=i[0][0]*a,i[1][1]-=i[0][1]*a;var l=F(i[1][0]*i[1][0]+i[1][1]*i[1][1]);if(0===l)return{origin:{x:d(r[4]),y:d(r[5])},translate:{x:d(t),y:d(n)},scale:{x:d(o),y:0},skew:{x:0,y:0},rotate:0};i[1][0]/=l,i[1][1]/=l,a/=l;var f=0;return i[1][1]<0?(f=j(i[1][1])*R,i[0][1]<0&&(f=360-f)):f=M(i[0][1])*R,u&&(f=-f),a=E(a,F(i[0][0]*i[0][0]+i[0][1]*i[0][1]))*R,u&&(a=-a),{origin:{x:d(r[4]),y:d(r[5])},translate:{x:d(t),y:d(n)},scale:{x:d(o),y:d(l)},skew:{x:d(a),y:0},rotate:d(f)}}},{key:"clone",value:function(){var t=this.m;return new this.constructor(t[0],t[1],t[2],t[3],t[4],t[5])}},{key:"toString",value:function(){var t=arguments.length>0&&void 0!==arguments[0]?arguments[0]:" ";if(null===this.s){var n=this.m.map((function(t){return d(t)}));1===n[0]&&0===n[1]&&0===n[2]&&1===n[3]?this.s="translate("+n[4]+t+n[5]+")":this.s="matrix("+n.join(t)+")"}return this.s}}],[{key:"create",value:function(t){return t?Array.isArray(t)?s(this,v(t)):t instanceof this?t.clone():(new this).recomposeSelf(t.origin,t.rotate,t.skew,t.scale,t.translate):new this}}]),t}();function T(t,n,r){return t>=.5?r:n}function B(t,n,r){return 0===t||n===r?n:t*(r-n)+n}function q(t,n,r){var e=B(t,n,r);return e<=0?0:e}function L(t,n,r){var e=B(t,n,r);return e<=0?0:e>=1?1:e}function C(t,n,r){return 0===t?n:1===t?r:{x:B(t,n.x,r.x),y:B(t,n.y,r.y)}}function D(t,n,r){var e=function(t,n,r){return Math.round(B(t,n,r))}(t,n,r);return e<=0?0:e>=255?255:e}function z(t,n,r){return 0===t?n:1===t?r:{r:D(t,n.r,r.r),g:D(t,n.g,r.g),b:D(t,n.b,r.b),a:B(t,null==n.a?1:n.a,null==r.a?1:r.a)}}function V(t,n){for(var r=[],e=0;e<t;e++)r.push(n);return r}function G(t,n){if(--n<=0)return t;var r=(t=Object.assign([],t)).length;do{for(var e=0;e<r;e++)t.push(t[e])}while(--n>0);return t}var Y,$=function(){function t(n){e(this,t),this.list=n,this.length=n.length}return o(t,[{key:"setAttribute",value:function(t,n){for(var r=this.list,e=0;e<this.length;e++)r[e].setAttribute(t,n)}},{key:"removeAttribute",value:function(t){for(var n=this.list,r=0;r<this.length;r++)n[r].removeAttribute(t)}},{key:"style",value:function(t,n){for(var r=this.list,e=0;e<this.length;e++)r[e].style[t]=n}}]),t}(),U=/-./g,Q=function(t,n){return n.toUpperCase()};function H(t){return"function"==typeof t?t:T}function J(t){return t?"function"==typeof t?t:Array.isArray(t)?function(t){var n=arguments.length>1&&void 0!==arguments[1]?arguments[1]:b;if(!Array.isArray(t))return n;switch(t.length){case 1:return S(t[0])||n;case 2:return S(t[0],t[1])||n;case 4:return A(t[0],t[1],t[2],t[3])||n}return n}(t,null):function(t,n){var r=arguments.length>2&&void 0!==arguments[2]?arguments[2]:b;switch(t){case"linear":return b;case"steps":return S(n.steps||1,n.jump||0)||r;case"bezier":case"cubic-bezier":return A(n.x1||0,n.y1||0,n.x2||0,n.y2||0)||r}return r}(t.type,t.value,null):null}function Z(t,n,r){var e=arguments.length>3&&void 0!==arguments[3]&&arguments[3],i=n.length-1;if(t<=n[0].t)return e?[0,0,n[0].v]:n[0].v;if(t>=n[i].t)return e?[i,1,n[i].v]:n[i].v;var o,u=n[0],a=null;for(o=1;o<=i;o++){if(!(t>n[o].t)){a=n[o];break}u=n[o]}return null==a?e?[i,1,n[i].v]:n[i].v:u.t===a.t?e?[o,1,a.v]:a.v:(t=(t-u.t)/(a.t-u.t),u.e&&(t=u.e(t)),e?[o,t,r(t,u.v,a.v)]:r(t,u.v,a.v))}function K(t,n){var r=arguments.length>2&&void 0!==arguments[2]?arguments[2]:null;return t&&t.length?"function"!=typeof n?null:("function"!=typeof r&&(r=null),function(e){var i=Z(e,t,n);return null!=i&&r&&(i=r(i)),i}):null}function W(t,n){return t.t-n.t}function X(t,n,e,i,o){var u,a="@"===e[0],l="#"===e[0],f=Y[e],s=T;switch(a?(u=e.substr(1),e=u.replace(U,Q)):l&&(e=e.substr(1)),r(f)){case"function":if(s=f(i,o,Z,J,e,a,n,t),l)return s;break;case"string":s=K(i,H(f));break;case"object":if((s=K(i,H(f.i),f.f))&&"function"==typeof f.u)return f.u(n,s,e,a,t)}return s?function(t,n,r){if(arguments.length>3&&void 0!==arguments[3]&&arguments[3])return t instanceof $?function(e){return t.style(n,r(e))}:function(e){return t.style[n]=r(e)};if(Array.isArray(n)){var e=n.length;return function(i){var o=r(i);if(null==o)for(var u=0;u<e;u++)t[u].removeAttribute(n);else for(var a=0;a<e;a++)t[a].setAttribute(n,o)}}return function(e){var i=r(e);null==i?t.removeAttribute(n):t.setAttribute(n,i)}}(n,e,s,a):null}function tt(t,n,e,i){if(!i||"object"!==r(i))return null;var o=null,u=null;return Array.isArray(i)?u=function(t){if(!t||!t.length)return null;for(var n=0;n<t.length;n++)t[n].e&&(t[n].e=J(t[n].e));return t.sort(W)}(i):(u=i.keys,o=i.data||null),u?X(t,n,e,u,o):null}function nt(t,n,r){if(!r)return null;var e=[];for(var i in r)if(r.hasOwnProperty(i)){var o=tt(t,n,i,r[i]);o&&e.push(o)}return e.length?e:null}function rt(t,n){if(!n.duration||n.duration<0)return null;var r=function(t,n){if(!n)return null;var r=[];if(Array.isArray(n))for(var e=n.length,i=0;i<e;i++){var o=n[i];if(2===o.length){var u=null;if("string"==typeof o[0])u=t.getElementById(o[0]);else if(Array.isArray(o[0])){u=[];for(var a=0;a<o[0].length;a++)if("string"==typeof o[0][a]){var l=t.getElementById(o[0][a]);l&&u.push(l)}u=u.length?1===u.length?u[0]:new $(u):null}if(u){var f=nt(t,u,o[1]);f&&(r=r.concat(f))}}}else for(var s in n)if(n.hasOwnProperty(s)){var c=t.getElementById(s);if(c){var h=nt(t,c,n[s]);h&&(r=r.concat(h))}}return r.length?r:null}(t,n.elements);return r?function(t,n){var r=arguments.length>2&&void 0!==arguments[2]?arguments[2]:1/0,e=arguments.length>3&&void 0!==arguments[3]?arguments[3]:1,i=arguments.length>4&&void 0!==arguments[4]&&arguments[4],o=arguments.length>5&&void 0!==arguments[5]?arguments[5]:1,u=t.length,a=e>0?n:0;i&&r%2==0&&(a=n-a);var l=null;return function(f,s){var c=f%n,h=1+(f-c)/n;s*=e,i&&h%2==0&&(s=-s);var v=!1;if(h>r)c=a,v=!0,-1===o&&(c=e>0?0:n);else if(s<0&&(c=n-c),c===l)return!1;l=c;for(var y=0;y<u;y++)t[y](c);return v}}(r,n.duration,n.iterations||1/0,n.direction||1,!!n.alternate,n.fill||1):null}function et(t){return+("0x"+(t.replace(/[^0-9a-fA-F]+/g,"")||27))}function it(t,n,r){return!t||!r||n>t.length?t:t.substring(0,n)+it(t.substring(n+1),r,r)}function ot(t){var n=arguments.length>1&&void 0!==arguments[1]?arguments[1]:27;return!t||t%n?t%n:ot(t/n,n)}function ut(t,n,r){if(t&&t.length){var e=et(r),i=et(n),o=ot(e)+5,u=it(t,ot(e,5),o);return u=u.replace(/\x7c$/g,"==").replace(/\x2f$/g,"="),u=function(t,n,r){var e=+("0x"+t.substring(0,4));t=t.substring(4);for(var i=n%e+r%27,o=[],u=0;u<t.length;u+=2)if("|"!==t[u]){var a=+("0x"+t[u]+t[u+1])-i;o.push(a)}else{var l=+("0x"+t.substring(u+1,u+1+4))-i;u+=3,o.push(l)}return String.fromCharCode.apply(String,o)}(u=(u=atob(u)).replace(/[\x41-\x5A]/g,""),i,e),u=JSON.parse(u)}}Number.isInteger||(Number.isInteger=function(t){return"number"==typeof t&&isFinite(t)&&Math.floor(t)===t}),Number.EPSILON||(Number.EPSILON=2220446049250313e-31);var at=function(){function t(n,r){var i=arguments.length>2&&void 0!==arguments[2]?arguments[2]:{};e(this,t),this._id=0,this._running=!1,this._rollingBack=!1,this._animations=n,this.duration=r.duration,this.alternate=r.alternate,this.fill=r.fill,this.iterations=r.iterations,this.direction=i.direction||1,this.speed=i.speed||1,this.fps=i.fps||100,this.offset=i.offset||0,this.rollbackStartOffset=0}return o(t,[{key:"_rollback",value:function(){var t=this,n=1/0,r=null;this.rollbackStartOffset=this.offset,this._rollingBack||(this._rollingBack=!0,this._running=!0);this._id=window.requestAnimationFrame((function e(i){if(t._rollingBack){null==r&&(r=i);var o=i-r,u=t.rollbackStartOffset-o,a=Math.round(u*t.speed);if(a>t.duration&&n!=1/0){var l=!!t.alternate&&a/t.duration%2>1,f=a%t.duration;a=(f+=l?t.duration:0)||t.duration}var s=t.fps?1e3/t.fps:0,c=Math.max(0,a);if(c<n-s){t.offset=c,n=c;for(var h=t._animations,v=h.length,y=0;y<v;y++)h[y](c,t.direction)}var g=!1;if(t.iterations>0&&-1===t.fill){var d=t.iterations*t.duration,p=d==a;a=p?0:a,t.offset=p?0:t.offset,g=a>d}a>0&&t.offset>=a&&!g?t._id=window.requestAnimationFrame(e):t.stop()}}))}},{key:"_start",value:function(){var t=this,n=arguments.length>0&&void 0!==arguments[0]?arguments[0]:0,r=-1/0,e=null,i={},o=function o(u){t._running=!0,null==e&&(e=u);var a=Math.round((u-e+n)*t.speed),l=t.fps?1e3/t.fps:0;if(a>r+l&&!t._rollingBack){t.offset=a,r=a;for(var f=t._animations,s=f.length,c=0,h=0;h<s;h++)i[h]?c++:(i[h]=f[h](a,t.direction),i[h]&&c++);if(c===s)return void t._stop()}t._id=window.requestAnimationFrame(o)};this._id=window.requestAnimationFrame(o)}},{key:"_stop",value:function(){this._id&&window.cancelAnimationFrame(this._id),this._running=!1,this._rollingBack=!1}},{key:"play",value:function(){!this._rollingBack&&this._running||(this._rollingBack=!1,this.rollbackStartOffset>this.duration&&(this.offset=this.rollbackStartOffset-(this.rollbackStartOffset-this.offset)%this.duration,this.rollbackStartOffset=0),this._start(this.offset))}},{key:"stop",value:function(){this._stop(),this.offset=0,this.rollbackStartOffset=0;var t=this.direction,n=this._animations;window.requestAnimationFrame((function(){for(var r=0;r<n.length;r++)n[r](0,t)}))}},{key:"reachedToEnd",value:function(){return this.iterations>0&&this.offset>=this.iterations*this.duration}},{key:"restart",value:function(){this._stop(),this.offset=0,this._start()}},{key:"pause",value:function(){this._stop()}},{key:"reverse",value:function(){this.direction=-this.direction}}],[{key:"build",value:function(r,e){return delete r.animationSettings,r.options=ut(r.options,r.root,"5c7f360c"),r.animations.map((function(t){var e=ut(t.s,r.root,"5c7f360c");for(var i in delete t.s,r.animationSettings||(r.animationSettings=n({},e)),e)e.hasOwnProperty(i)&&(t[i]=e[i])})),(r=function(t,n){if(Y=n,!t||!t.root||!Array.isArray(t.animations))return null;for(var r=document.getElementsByTagName("svg"),e=!1,i=0;i<r.length;i++)if(r[i].id===t.root&&!r[i].svgatorAnimation){(e=r[i]).svgatorAnimation=!0;break}if(!e)return null;var o=t.animations.map((function(t){return rt(e,t)})).filter((function(t){return!!t}));return o.length?{element:e,animations:o,animationSettings:t.animationSettings,options:t.options||void 0}:null}(r,e))?{el:r.element,options:r.options||{},player:new t(r.animations,r.animationSettings,r.options)}:null}},{key:"push",value:function(t){return this.build(t)}},{key:"init",value:function(){var t=this,n=window.__SVGATOR_PLAYER__&&window.__SVGATOR_PLAYER__["5c7f360c"];Array.isArray(n)&&n.splice(0).forEach((function(n){return t.build(n)}))}}]),t}();function lt(t){return d(t)+""}function ft(t){var n=arguments.length>1&&void 0!==arguments[1]?arguments[1]:" ";return t&&t.length?t.map(lt).join(n):""}function st(t){if(!t)return"transparent";if(null==t.a||t.a>=1){var n=function(t){return 1===(t=parseInt(t).toString(16)).length?"0"+t:t},r=function(t){return t.charAt(0)===t.charAt(1)},e=n(t.r),i=n(t.g),o=n(t.b);return r(e)&&r(i)&&r(o)&&(e=e.charAt(0),i=i.charAt(0),o=o.charAt(0)),"#"+e+i+o}return"rgba("+t.r+","+t.g+","+t.b+","+t.a+")"}function ct(t){return t?"url(#"+t+")":"none"}!function(){for(var t=0,n=["ms","moz","webkit","o"],r=0;r<n.length&&!window.requestAnimationFrame;++r)window.requestAnimationFrame=window[n[r]+"RequestAnimationFrame"],window.cancelAnimationFrame=window[n[r]+"CancelAnimationFrame"]||window[n[r]+"CancelRequestAnimationFrame"];window.requestAnimationFrame||(window.requestAnimationFrame=function(n){var r=Date.now(),e=Math.max(0,16-(r-t)),i=window.setTimeout((function(){n(r+e)}),e);return t=r+e,i},window.cancelAnimationFrame=window.clearTimeout)}();var ht={f:null,i:function(t,n,r){return 0===t?n:1===t?r:{x:q(t,n.x,r.x),y:q(t,n.y,r.y)}},u:function(t,n){return function(r){var e=n(r);t.setAttribute("rx",lt(e.x)),t.setAttribute("ry",lt(e.y))}}},vt={f:null,i:function(t,n,r){return 0===t?n:1===t?r:{width:q(t,n.width,r.width),height:q(t,n.height,r.height)}},u:function(t,n){return function(r){var e=n(r);t.setAttribute("width",lt(e.width)),t.setAttribute("height",lt(e.height))}}};Object.freeze({M:2,L:2,Z:0,H:1,V:1,C:6,Q:4,T:2,S:4,A:7});var yt={},gt=null;function dt(t){var n=function(){if(gt)return gt;if("object"!==("undefined"==typeof document?"undefined":r(document))||!document.createElementNS)return{};var t=document.createElementNS("http://www.w3.org/2000/svg","svg");return t&&t.style?(t.style.position="absolute",t.style.opacity="0.01",t.style.zIndex="-9999",t.style.left="-9999px",t.style.width="1px",t.style.height="1px",gt={svg:t}):{}}().svg;if(!n)return function(t){return null};var e=document.createElementNS(n.namespaceURI,"path");e.setAttributeNS(null,"d",t),e.setAttributeNS(null,"fill","none"),e.setAttributeNS(null,"stroke","none"),n.appendChild(e);var i=e.getTotalLength();return function(t){var n=e.getPointAtLength(i*t);return{x:n.x,y:n.y}}}function pt(t){return yt[t]?yt[t]:yt[t]=dt(t)}function mt(t,n,r,e){if(!t||!e)return!1;var i=["M",t.x,t.y];if(n&&r&&(i.push("C"),i.push(n.x),i.push(n.y),i.push(r.x),i.push(r.y)),n?!r:r){var o=n||r;i.push("Q"),i.push(o.x),i.push(o.y)}return n||r||i.push("L"),i.push(e.x),i.push(e.y),i.join(" ")}function bt(t,n,r,e){var i=arguments.length>4&&void 0!==arguments[4]?arguments[4]:1,o=mt(t,n,r,e),u=pt(o);try{return u(i)}catch(t){return null}}function wt(t,n,r,e){var i=1-e;return i*i*t+2*i*e*n+e*e*r}function At(t,n,r,e){return 2*(1-e)*(n-t)+2*e*(r-n)}function xt(t,n,r,e){var i=arguments.length>4&&void 0!==arguments[4]&&arguments[4],o=bt(t,n,null,r,e);return o||(o={x:wt(t.x,n.x,r.x,e),y:wt(t.y,n.y,r.y,e)}),i&&(o.a=kt(t,n,r,e)),o}function kt(t,n,r,e){return Math.atan2(At(t.y,n.y,r.y,e),At(t.x,n.x,r.x,e))}function St(t,n,r,e,i){var o=i*i;return i*o*(e-t+3*(n-r))+3*o*(t+r-2*n)+3*i*(n-t)+t}function _t(t,n,r,e,i){var o=1-i;return 3*(o*o*(n-t)+2*o*i*(r-n)+i*i*(e-r))}function Ot(t,n,r,e,i){var o=arguments.length>5&&void 0!==arguments[5]&&arguments[5],u=bt(t,n,r,e,i);return u||(u={x:St(t.x,n.x,r.x,e.x,i),y:St(t.y,n.y,r.y,e.y,i)}),o&&(u.a=jt(t,n,r,e,i)),u}function jt(t,n,r,e,i){return Math.atan2(_t(t.y,n.y,r.y,e.y,i),_t(t.x,n.x,r.x,e.x,i))}function Mt(t,n,r){return t+(n-t)*r}function Pt(t,n,r){var e=arguments.length>3&&void 0!==arguments[3]&&arguments[3],i={x:Mt(t.x,n.x,r),y:Mt(t.y,n.y,r)};return e&&(i.a=Et(t,n)),i}function Et(t,n){return Math.atan2(n.y-t.y,n.x-t.x)}function It(t,n,r){var e=arguments.length>3&&void 0!==arguments[3]&&arguments[3];if(Ft(n)){if(Nt(r))return xt(n,r.start,r,t,e)}else if(Ft(r)){if(n.end)return xt(n,n.end,r,t,e)}else{if(n.end)return r.start?Ot(n,n.end,r.start,r,t,e):xt(n,n.end,r,t,e);if(r.start)return xt(n,r.start,r,t,e)}return Pt(n,r,t,e)}function Rt(t,n,r){var e=It(t,n,r,!0);return e.a=function(t){return arguments.length>1&&void 0!==arguments[1]&&arguments[1]?t+Math.PI:t}(e.a)/m,e}function Ft(t){return!t.type||"corner"===t.type}function Nt(t){return null!=t.start&&!Ft(t)}var Tt=new N;var Bt={f:lt,i:B},qt={f:lt,i:L};function Lt(t,n,r){return t.map((function(t){return function(t,n,r){var e=t.v;if(!e||"g"!==e.t||e.s||!e.v||!e.r)return t;var i=r.getElementById(e.r),o=i&&i.querySelectorAll("stop")||[];return e.s=e.v.map((function(t,n){var r=o[n]&&o[n].getAttribute("offset");return{c:t,o:r=d(parseInt(r)/100)}})),delete e.v,t}(t,0,r)}))}var Ct={gt:"gradientTransform",c:{x:"cx",y:"cy"},rd:"r",f:{x:"x1",y:"y1"},to:{x:"x2",y:"y2"}};function Dt(t,n,e,i,o,u,a,l){return Lt(t,0,l),n=function(t,n,r){for(var e,i,o,u=t.length-1,a={},l=0;l<=u;l++)(e=t[l]).e&&(e.e=n(e.e)),e.v&&"g"===(i=e.v).t&&i.r&&(o=r.getElementById(i.r))&&(a[i.r]={e:o,s:o.querySelectorAll("stop")});return a}(t,i,l),function(i){var o=e(i,t,zt);if(!o)return"none";if("c"===o.t)return st(o.v);if("g"===o.t){if(!n[o.r])return ct(o.r);var u=n[o.r];return function(t,n){for(var r=t.s,e=r.length;e<n.length;e++){var i=r[r.length-1].cloneNode();i.id=Yt(i.id),t.e.appendChild(i),r=t.s=t.e.querySelectorAll("stop")}for(var o=0,u=r.length,a=n.length-1;o<u;o++)r[o].setAttribute("stop-color",st(n[Math.min(o,a)].c)),r[o].setAttribute("offset",n[Math.min(o,a)].o)}(u,o.s),Object.keys(Ct).forEach((function(t){if(void 0!==o[t])if("object"!==r(Ct[t])){var n,e="gt"===t?(n=o[t],Array.isArray(n)?"matrix("+n.join(" ")+")":""):o[t],i=Ct[t];u.e.setAttribute(i,e)}else Object.keys(Ct[t]).forEach((function(n){if(void 0!==o[t][n]){var r=o[t][n],e=Ct[t][n];u.e.setAttribute(e,r)}}))})),ct(o.r)}return"none"}}function zt(t,r,e){if(0===t)return r;if(1===t)return e;if(r&&e){var i=r.t;if(i===e.t)switch(r.t){case"c":return{t:i,v:z(t,r.v,e.v)};case"g":if(r.r===e.r){var o={t:i,s:Vt(t,r.s,e.s),r:r.r};return r.gt&&e.gt&&(o.gt=function(t,n,r){var e=n.length;if(e!==r.length)return T(t,n,r);for(var i=new Array(e),o=0;o<e;o++)i[o]=B(t,n[o],r[o]);return i}(t,r.gt,e.gt)),r.c?(o.c=C(t,r.c,e.c),o.rd=q(t,r.rd,e.rd)):r.f&&(o.f=C(t,r.f,e.f),o.to=C(t,r.to,e.to)),o}}if("c"===r.t&&"g"===e.t||"c"===e.t&&"g"===r.t){var u="c"===r.t?r:e,a="g"===r.t?n({},r):n({},e),l=a.s.map((function(t){return{c:u.v,o:t.o}}));return a.s="c"===r.t?Vt(t,l,a.s):Vt(t,a.s,l),a}}return T(t,r,e)}function Vt(t,n,r){if(n.length===r.length)return n.map((function(n,e){return Gt(t,n,r[e])}));for(var e=Math.max(n.length,r.length),i=[],o=0;o<e;o++){var u=Gt(t,n[Math.min(o,n.length-1)],r[Math.min(o,r.length-1)]);i.push(u)}return i}function Gt(t,n,r){return{o:L(t,n.o,r.o||0),c:z(t,n.c,r.c||{})}}function Yt(t){return t.replace(/-fill-([0-9]+)$/,(function(t,n){return"-fill-"+(+n+1)}))}var $t={fill:Dt,"fill-opacity":qt,stroke:Dt,"stroke-opacity":qt,"stroke-width":Bt,"stroke-dashoffset":{f:lt,i:B},"stroke-dasharray":{f:function(t){var n=arguments.length>1&&void 0!==arguments[1]?arguments[1]:" ";return t&&t.length>0&&(t=t.map((function(t){return d(t,4)}))),ft(t,n)},i:function(t,n,r){var e,i,o,u=n.length,a=r.length;if(u!==a)if(0===u)n=V(u=a,0);else if(0===a)a=u,r=V(u,0);else{var l=(o=(e=u)*(i=a)/function(t,n){for(var r;n;)r=n,n=t%n,t=r;return t||1}(e,i))<0?-o:o;n=G(n,Math.floor(l/u)),r=G(r,Math.floor(l/a)),u=a=l}for(var f=[],s=0;s<u;s++)f.push(d(q(t,n[s],r[s])));return f}},opacity:qt,transform:function(t,n,e,i){if(!(t=function(t,n){if(!t||"object"!==r(t))return null;var e=!1;for(var i in t)t.hasOwnProperty(i)&&(t[i]&&t[i].length?(t[i].forEach((function(t){t.e&&(t.e=n(t.e))})),e=!0):delete t[i]);return e?t:null}(t,i)))return null;var o=function(r,i,o){var u=arguments.length>3&&void 0!==arguments[3]?arguments[3]:null;return t[r]?e(i,t[r],o):n&&n[r]?n[r]:u};return n&&n.a&&t.o?function(n){var r=e(n,t.o,Rt);return Tt.recomposeSelf(r,o("r",n,B,0)+r.a,o("k",n,C),o("s",n,C),o("t",n,C)).toString()}:function(t){return Tt.recomposeSelf(o("o",t,It,null),o("r",t,B,0),o("k",t,C),o("s",t,C),o("t",t,C)).toString()}},r:Bt,"#size":vt,"#radius":ht,_:function(t,n){if(Array.isArray(t))for(var r=0;r<t.length;r++)this[t[r]]=n;else this[t]=n}},Ut=function(t){!function(t,n){if("function"!=typeof n&&null!==n)throw new TypeError("Super expression must either be null or a function");t.prototype=Object.create(n&&n.prototype,{constructor:{value:t,writable:!0,configurable:!0}}),n&&l(t,n)}(u,t);var n,r,i=(n=u,r=f(),function(){var t,e=a(n);if(r){var i=a(this).constructor;t=Reflect.construct(e,arguments,i)}else t=e.apply(this,arguments);return c(this,t)});function u(){return e(this,u),i.apply(this,arguments)}return o(u,null,[{key:"build",value:function(t){var n=h(a(u),"build",this).call(this,t,$t);if(!n)return null;n.el,n.options,function(t,n,r){t.play()}(n.player)}}]),u}(at);return Ut.init(),Ut}));
(function(s,i,o,w){w[o]=w[o]||{};w[o][s]=w[o][s]||[];w[o][s].push(i);})('5c7f360c',{"root":"eARErs3gGMW1","animations":[{"elements":{"eARErs3gGMW3":{"opacity":[{"t":0,"v":0,"e":[0.25,1,0.25,1]},{"t":500,"v":1},{"t":9300,"v":1,"e":[0.25,1,0.25,1]},{"t":9800,"v":0,"e":[0.75,0,0.75,0]}]},"eARErs3gGMW5":{"transform":{"data":{"o":{"x":134.907349,"y":255.778008,"type":"corner"},"t":{"x":-134.907348,"y":-255.778007}},"keys":{"s":[{"t":0,"v":{"x":0,"y":0},"e":[0.25,1,0.25,1]},{"t":500,"v":{"x":1,"y":1}},{"t":9300,"v":{"x":1,"y":1},"e":[0.25,1,0.25,1]},{"t":10000,"v":{"x":0,"y":0},"e":[0.75,0,0.75,0]}]}}},"eARErs3gGMW14":{"opacity":[{"t":200,"v":0,"e":[0.25,1,0.25,1]},{"t":700,"v":1},{"t":9100,"v":1,"e":[0.25,1,0.25,1]},{"t":9600,"v":0,"e":[0.75,0,0.75,0]}]},"eARErs3gGMW16":{"transform":{"data":{"o":{"x":134.907208,"y":197.431999,"type":"corner"},"t":{"x":-134.907207,"y":-197.431999}},"keys":{"s":[{"t":200,"v":{"x":0,"y":0},"e":[0.25,1,0.25,1]},{"t":700,"v":{"x":1,"y":1}},{"t":9100,"v":{"x":1,"y":1},"e":[0.25,1,0.25,1]},{"t":9800,"v":{"x":0,"y":0},"e":[0.75,0,0.75,0]}]}}},"eARErs3gGMW26":{"opacity":[{"t":400,"v":0,"e":[0.25,1,0.25,1]},{"t":900,"v":1},{"t":8900,"v":1,"e":[0.25,1,0.25,1]},{"t":9400,"v":0,"e":[0.75,0,0.75,0]}]},"eARErs3gGMW28":{"transform":{"data":{"o":{"x":134.907101,"y":138.0691,"type":"corner"},"t":{"x":-134.907101,"y":-138.0691}},"keys":{"s":[{"t":400,"v":{"x":0,"y":0},"e":[0.25,1,0.25,1]},{"t":900,"v":{"x":1,"y":1}},{"t":8900,"v":{"x":1,"y":1},"e":[0.25,1,0.25,1]},{"t":9600,"v":{"x":0,"y":0},"e":[0.75,0,0.75,0]}]}}},"eARErs3gGMW39":{"transform":{"data":{"o":{"x":83.947336,"y":196.768767,"type":"corner"},"t":{"x":-84.02973,"y":-196.768767}},"keys":{"s":[{"t":900,"v":{"x":1,"y":1},"e":[0.25,1,0.25,1]},{"t":1400,"v":{"x":0,"y":0},"e":[0.75,0,0.75,0]},{"t":8500,"v":{"x":0,"y":0},"e":[0.25,1,0.25,1]},{"t":9000,"v":{"x":1,"y":1},"e":[0.75,0,0.75,0]}]}}},"eARErs3gGMW40":{"transform":{"data":{"o":{"x":173.908039,"y":139.807205,"type":"corner"},"t":{"x":-120.512145,"y":-170.366227}},"keys":{"s":[{"t":900,"v":{"x":1,"y":1},"e":[0.25,1,0.25,1]},{"t":1400,"v":{"x":0,"y":0},"e":[0.75,0,0.75,0]},{"t":8500,"v":{"x":0,"y":0},"e":[0.25,1,0.25,1]},{"t":9000,"v":{"x":1,"y":1},"e":[0.75,0,0.75,0]}]}}},"eARErs3gGMW41":{"transform":{"data":{"o":{"x":180.965165,"y":199.532808,"type":"corner"},"t":{"x":-180.965165,"y":-199.532808}},"keys":{"s":[{"t":900,"v":{"x":1,"y":1},"e":[0.25,1,0.25,1]},{"t":1400,"v":{"x":0,"y":0},"e":[0.75,0,0.75,0]},{"t":8500,"v":{"x":0,"y":0},"e":[0.25,1,0.25,1]},{"t":9000,"v":{"x":1,"y":1},"e":[0.75,0,0.75,0]}]}}},"eARErs3gGMW42":{"transform":{"data":{"o":{"x":88.737668,"y":85.625282,"type":"corner"},"t":{"x":-88.737668,"y":-85.625282}},"keys":{"s":[{"t":1000,"v":{"x":0,"y":0},"e":[0.25,1,0.25,1]},{"t":2000,"v":{"x":1,"y":1}},{"t":8400,"v":{"x":1,"y":1},"e":[0.25,1,0.25,1]},{"t":9400,"v":{"x":0,"y":0},"e":[0.75,0,0.75,0]}]}}},"eARErs3gGMW43":{"transform":{"data":{"o":{"x":178.218832,"y":83.22131,"type":"corner"},"t":{"x":-178.218832,"y":-83.22131}},"keys":{"s":[{"t":1000,"v":{"x":0,"y":0},"e":[0.25,1,0.25,1]},{"t":2000,"v":{"x":1,"y":1}},{"t":8400,"v":{"x":1,"y":1},"e":[0.25,1,0.25,1]},{"t":9400,"v":{"x":0,"y":0},"e":[0.75,0,0.75,0]}]}}},"eARErs3gGMW44":{"transform":{"data":{"o":{"x":183.306479,"y":138.292558,"type":"corner"},"t":{"x":-183.306479,"y":-138.292558}},"keys":{"s":[{"t":1000,"v":{"x":0,"y":0},"e":[0.25,1,0.25,1]},{"t":2000,"v":{"x":1,"y":1}},{"t":8400,"v":{"x":1,"y":1},"e":[0.25,1,0.25,1]},{"t":9400,"v":{"x":0,"y":0},"e":[0.75,0,0.75,0]}]}}},"eARErs3gGMW45":{"transform":{"data":{"o":{"x":81.234525,"y":135.591495,"type":"corner"},"t":{"x":-81.234525,"y":-135.591495}},"keys":{"s":[{"t":1000,"v":{"x":0,"y":0},"e":[0.25,1,0.25,1]},{"t":2000,"v":{"x":1,"y":1}},{"t":8400,"v":{"x":1,"y":1},"e":[0.25,1,0.25,1]},{"t":9400,"v":{"x":0,"y":0},"e":[0.75,0,0.75,0]}]}}},"eARErs3gGMW46":{"transform":{"data":{"t":{"x":-140.081501,"y":-98.041679}},"keys":{"o":[{"t":2300,"v":{"x":140.081501,"y":80,"type":"corner"},"e":[0.25,1,0.25,1]},{"t":3600,"v":{"x":140.081501,"y":97,"type":"corner"}},{"t":4400,"v":{"x":140.081501,"y":80,"type":"corner"},"e":[0.25,1,0.25,1]},{"t":5700,"v":{"x":140.081501,"y":97,"type":"corner"}},{"t":6500,"v":{"x":140.081501,"y":80,"type":"corner"},"e":[0.25,1,0.25,1]},{"t":7800,"v":{"x":140.081501,"y":97,"type":"corner"}}]}},"opacity":[{"t":2300,"v":0,"e":[0.25,1,0.25,1]},{"t":3000,"v":0.25},{"t":3600,"v":0,"e":[0.25,1,0.25,1]},{"t":4400,"v":0,"e":[0.25,1,0.25,1]},{"t":5100,"v":0.25},{"t":5700,"v":0,"e":[0.25,1,0.25,1]},{"t":6500,"v":0,"e":[0.25,1,0.25,1]},{"t":7200,"v":0.25},{"t":7800,"v":0,"e":[0.25,1,0.25,1]}]},"eARErs3gGMW48":{"transform":{"data":{"t":{"x":-129.969501,"y":-103.090839}},"keys":{"o":[{"t":2000,"v":{"x":129.969501,"y":80,"type":"corner"},"e":[0.25,1,0.25,1]},{"t":3300,"v":{"x":129.969501,"y":102,"type":"corner"}},{"t":4200,"v":{"x":129.969501,"y":80,"type":"corner"},"e":[0.25,1,0.25,1]},{"t":5500,"v":{"x":129.969501,"y":102,"type":"corner"}},{"t":6300,"v":{"x":129.969501,"y":80,"type":"corner"},"e":[0.25,1,0.25,1]},{"t":7600,"v":{"x":129.969501,"y":102,"type":"corner"}}]}},"opacity":[{"t":2000,"v":0,"e":[0.25,1,0.25,1]},{"t":2700,"v":0.5},{"t":3300,"v":0,"e":[0.25,1,0.25,1]},{"t":4200,"v":0,"e":[0.25,1,0.25,1]},{"t":4900,"v":0.5},{"t":5500,"v":0,"e":[0.25,1,0.25,1]},{"t":6300,"v":0,"e":[0.25,1,0.25,1]},{"t":7000,"v":0.5},{"t":7600,"v":0,"e":[0.25,1,0.25,1]}]},"eARErs3gGMW50":{"transform":{"data":{"t":{"x":-121.249001,"y":-108.140739}},"keys":{"o":[{"t":1700,"v":{"x":121.249001,"y":80,"type":"corner"},"e":[0.25,1,0.25,1]},{"t":3000,"v":{"x":121.249001,"y":105,"type":"corner"}},{"t":4000,"v":{"x":121.249001,"y":80,"type":"corner"},"e":[0.25,1,0.25,1]},{"t":5300,"v":{"x":121.249001,"y":105,"type":"corner"}},{"t":6100,"v":{"x":121.249001,"y":80,"type":"corner"},"e":[0.25,1,0.25,1]},{"t":7400,"v":{"x":121.249001,"y":105,"type":"corner"}}]}},"opacity":[{"t":1700,"v":0,"e":[0.25,1,0.25,1]},{"t":2400,"v":1},{"t":3000,"v":0,"e":[0.25,1,0.25,1]},{"t":4000,"v":0,"e":[0.25,1,0.25,1]},{"t":4700,"v":1},{"t":5300,"v":0,"e":[0.25,1,0.25,1]},{"t":6100,"v":0,"e":[0.25,1,0.25,1]},{"t":6800,"v":1},{"t":7400,"v":0,"e":[0.25,1,0.25,1]}]}},"s":"MPDA1NFViNDViOWRhZWGFiOWFhZGEyYThhNzVLiNzNLNmE2OTY5Njk2JOTY1VzViOWRhMmFiOHWU5Y2FkYTJUYThDYTDc1YjczNmE2NTViYTJLhZDllYWI5YWFkYTJhKOGE3YWM1YjczNjk2NATViOWZEYTJhNWE1NWPI3MzZhUTY1NWI5YWEY1YWQ5ZWFiYTc5YWFkEOWU1YjczUTlmOWFhNSWFjOWU2NTViYWNhOTSllOWU5ZDViNzM2YWIX2"}],"options":"MKDAxMDg4MmY4MDgxNmGVVN2Y4MTJmNDcyZjcW5N2M2ZVI3MTJmOGE/E"},'__SVGATOR_PLAYER__',window)]]></script></svg>