<svg id="eKJMVGHQRxL1" xmlns="http://www.w3.org/2000/svg" xmlns:xlink="http://www.w3.org/1999/xlink" viewBox="0 0 571 348" shape-rendering="geometricPrecision" text-rendering="geometricPrecision" width="571" height="348"><defs><linearGradient id="eKJMVGHQRxL2-stroke" x1="64.2352" y1="24.3231" x2="14.2648" y2="42.7172" spreadMethod="pad" gradientUnits="userSpaceOnUse" gradientTransform="translate(0 0)"><stop id="eKJMVGHQRxL2-stroke-0" offset="0%" stop-color="#fa5a47"/><stop id="eKJMVGHQRxL2-stroke-1" offset="100%" stop-color="rgba(250,90,71,0)"/></linearGradient><linearGradient id="eKJMVGHQRxL3-stroke" x1="64.2352" y1="24.3231" x2="14.2648" y2="42.7172" spreadMethod="pad" gradientUnits="userSpaceOnUse" gradientTransform="translate(0 0)"><stop id="eKJMVGHQRxL3-stroke-0" offset="0%" stop-color="#fa5a47"/><stop id="eKJMVGHQRxL3-stroke-1" offset="100%" stop-color="rgba(250,90,71,0)"/></linearGradient><linearGradient id="eKJMVGHQRxL4-stroke" x1="38.185" y1="-10.9515" x2="16.0114" y2="40.7713" spreadMethod="pad" gradientUnits="userSpaceOnUse" gradientTransform="translate(0 0)"><stop id="eKJMVGHQRxL4-stroke-0" offset="0%" stop-color="#fa5a47"/><stop id="eKJMVGHQRxL4-stroke-1" offset="87.8185%" stop-color="rgba(250,90,71,0)"/></linearGradient><linearGradient id="eKJMVGHQRxL48-fill" x1="12.6168" y1="0" x2="12.6168" y2="100.935" spreadMethod="pad" gradientUnits="userSpaceOnUse" gradientTransform="translate(0 0)"><stop id="eKJMVGHQRxL48-fill-0" offset="0%" stop-color="#ff3e3e"/><stop id="eKJMVGHQRxL48-fill-1" offset="100%" stop-color="rgba(255,62,62,0.5)"/></linearGradient><linearGradient id="eKJMVGHQRxL49-fill" x1="12.6168" y1="0" x2="12.6168" y2="100.935" spreadMethod="pad" gradientUnits="userSpaceOnUse" gradientTransform="translate(0 0)"><stop id="eKJMVGHQRxL49-fill-0" offset="0%" stop-color="#ff3e3e"/><stop id="eKJMVGHQRxL49-fill-1" offset="100%" stop-color="rgba(255,62,62,0.5)"/></linearGradient><linearGradient id="eKJMVGHQRxL55-fill" x1="275.175" y1="110.021" x2="307.56" y2="177.378" spreadMethod="pad" gradientUnits="userSpaceOnUse" gradientTransform="translate(0 0)"><stop id="eKJMVGHQRxL55-fill-0" offset="0%" stop-color="#3e3d51"/><stop id="eKJMVGHQRxL55-fill-1" offset="100%" stop-color="#292733"/></linearGradient><linearGradient id="eKJMVGHQRxL71-fill" x1="275.175" y1="61.7676" x2="307.56" y2="129.125" spreadMethod="pad" gradientUnits="userSpaceOnUse" gradientTransform="translate(0 0)"><stop id="eKJMVGHQRxL71-fill-0" offset="0%" stop-color="#3e3d51"/><stop id="eKJMVGHQRxL71-fill-1" offset="100%" stop-color="#292733"/></linearGradient><filter id="eKJMVGHQRxL75-filter" x="-400%" width="600%" y="-400%" height="600%"><feGaussianBlur id="eKJMVGHQRxL75-filter-blur-0" stdDeviation="10,10" result="result"/></filter><linearGradient id="eKJMVGHQRxL76-fill" x1="294.26" y1="50.1371" x2="275.175" y2="83.1938" spreadMethod="pad" gradientUnits="userSpaceOnUse" gradientTransform="translate(0 0)"><stop id="eKJMVGHQRxL76-fill-0" offset="0%" stop-color="#e1e1e6"/><stop id="eKJMVGHQRxL76-fill-1" offset="100%" stop-color="rgba(225,225,230,0.4)"/></linearGradient><linearGradient id="eKJMVGHQRxL77-fill" x1="275.173" y1="43.8203" x2="275.173" y2="103.039" spreadMethod="pad" gradientUnits="userSpaceOnUse" gradientTransform="translate(0 0)"><stop id="eKJMVGHQRxL77-fill-0" offset="0%" stop-color="#e1e1e6"/><stop id="eKJMVGHQRxL77-fill-1" offset="100%" stop-color="rgba(225,225,230,0.4)"/></linearGradient><linearGradient id="eKJMVGHQRxL83-fill" x1="437.273" y1="203.017" x2="469.658" y2="270.374" spreadMethod="pad" gradientUnits="userSpaceOnUse" gradientTransform="translate(0 0)"><stop id="eKJMVGHQRxL83-fill-0" offset="0%" stop-color="#3e3d51"/><stop id="eKJMVGHQRxL83-fill-1" offset="100%" stop-color="#292733"/></linearGradient><filter id="eKJMVGHQRxL90-filter" x="-400%" width="600%" y="-400%" height="600%"><feGaussianBlur id="eKJMVGHQRxL90-filter-drop-shadow-0-blur" in="SourceAlpha" stdDeviation="15,15"/><feOffset id="eKJMVGHQRxL90-filter-drop-shadow-0-offset" dx="0" dy="0" result="tmp"/><feFlood id="eKJMVGHQRxL90-filter-drop-shadow-0-flood" flood-color="#bc3636"/><feComposite id="eKJMVGHQRxL90-filter-drop-shadow-0-composite" operator="in" in2="tmp"/><feMerge id="eKJMVGHQRxL90-filter-drop-shadow-0-merge"><feMergeNode id="eKJMVGHQRxL90-filter-drop-shadow-0-merge-node-1"/><feMergeNode id="eKJMVGHQRxL90-filter-drop-shadow-0-merge-node-2" in="SourceGraphic"/></feMerge></filter><linearGradient id="eKJMVGHQRxL99-fill" x1="437.273" y1="154.764" x2="469.658" y2="222.121" spreadMethod="pad" gradientUnits="userSpaceOnUse" gradientTransform="translate(0 0)"><stop id="eKJMVGHQRxL99-fill-0" offset="0%" stop-color="#3e3d51"/><stop id="eKJMVGHQRxL99-fill-1" offset="100%" stop-color="#292733"/></linearGradient><filter id="eKJMVGHQRxL103-filter" x="-400%" width="600%" y="-400%" height="600%"><feGaussianBlur id="eKJMVGHQRxL103-filter-blur-0" stdDeviation="10,10" result="result"/></filter><linearGradient id="eKJMVGHQRxL104-fill" x1="456.358" y1="143.133" x2="437.273" y2="176.19" spreadMethod="pad" gradientUnits="userSpaceOnUse" gradientTransform="translate(0 0)"><stop id="eKJMVGHQRxL104-fill-0" offset="0%" stop-color="#e1e1e6"/><stop id="eKJMVGHQRxL104-fill-1" offset="100%" stop-color="rgba(225,225,230,0.4)"/></linearGradient><linearGradient id="eKJMVGHQRxL105-fill" x1="439.515" y1="147.348" x2="439.515" y2="200.471" spreadMethod="pad" gradientUnits="userSpaceOnUse" gradientTransform="translate(0 0)"><stop id="eKJMVGHQRxL105-fill-0" offset="0%" stop-color="#e1e1e6"/><stop id="eKJMVGHQRxL105-fill-1" offset="100%" stop-color="rgba(225,225,230,0.4)"/></linearGradient><linearGradient id="eKJMVGHQRxL111-fill" x1="111.785" y1="203.017" x2="79.3997" y2="270.374" spreadMethod="pad" gradientUnits="userSpaceOnUse" gradientTransform="translate(0 0)"><stop id="eKJMVGHQRxL111-fill-0" offset="0%" stop-color="#3e3d51"/><stop id="eKJMVGHQRxL111-fill-1" offset="100%" stop-color="#292733"/></linearGradient><filter id="eKJMVGHQRxL118-filter" x="-400%" width="600%" y="-400%" height="600%"><feGaussianBlur id="eKJMVGHQRxL118-filter-drop-shadow-0-blur" in="SourceAlpha" stdDeviation="15,15"/><feOffset id="eKJMVGHQRxL118-filter-drop-shadow-0-offset" dx="0" dy="0" result="tmp"/><feFlood id="eKJMVGHQRxL118-filter-drop-shadow-0-flood" flood-color="#bc3636"/><feComposite id="eKJMVGHQRxL118-filter-drop-shadow-0-composite" operator="in" in2="tmp"/><feMerge id="eKJMVGHQRxL118-filter-drop-shadow-0-merge"><feMergeNode id="eKJMVGHQRxL118-filter-drop-shadow-0-merge-node-1"/><feMergeNode id="eKJMVGHQRxL118-filter-drop-shadow-0-merge-node-2" in="SourceGraphic"/></feMerge></filter><linearGradient id="eKJMVGHQRxL127-fill" x1="111.785" y1="154.764" x2="79.3997" y2="222.121" spreadMethod="pad" gradientUnits="userSpaceOnUse" gradientTransform="translate(0 0)"><stop id="eKJMVGHQRxL127-fill-0" offset="0%" stop-color="#3e3d51"/><stop id="eKJMVGHQRxL127-fill-1" offset="100%" stop-color="#292733"/></linearGradient><linearGradient id="eKJMVGHQRxL147-fill" x1="111.633" y1="151.88" x2="111.633" y2="203.432" spreadMethod="pad" gradientUnits="userSpaceOnUse" gradientTransform="translate(0 0)"><stop id="eKJMVGHQRxL147-fill-0" offset="0%" stop-color="#e1e1e6"/><stop id="eKJMVGHQRxL147-fill-1" offset="100%" stop-color="rgba(225,225,230,0.4)"/></linearGradient><filter id="eKJMVGHQRxL148-filter" x="-400%" width="600%" y="-400%" height="600%"><feGaussianBlur id="eKJMVGHQRxL148-filter-blur-0" stdDeviation="10,10" result="result"/></filter><linearGradient id="eKJMVGHQRxL149-fill" x1="92.6999" y1="143.133" x2="111.785" y2="176.19" spreadMethod="pad" gradientUnits="userSpaceOnUse" gradientTransform="translate(0 0)"><stop id="eKJMVGHQRxL149-fill-0" offset="0%" stop-color="#e1e1e6"/><stop id="eKJMVGHQRxL149-fill-1" offset="100%" stop-color="rgba(225,225,230,0.4)"/></linearGradient></defs><rect id="eKJMVGHQRxL2" width="49.0537" height="49.0537" rx="3.5" ry="3.5" transform="matrix(.866025 0.5-.866025 0.5 190.389988 115.138)" opacity="0" fill="none" stroke="url(#eKJMVGHQRxL2-stroke)"/><rect id="eKJMVGHQRxL3" width="49.0537" height="49.0537" rx="3.5" ry="3.5" transform="matrix(-.866025 0.5 0.866025 0.5 527.652012 201.364)" opacity="0" fill="none" stroke="url(#eKJMVGHQRxL3-stroke)"/><rect id="eKJMVGHQRxL4" width="59.8312" height="49.0537" rx="3.5" ry="3.5" transform="matrix(-.866025 0.5 0.866025 0.5 228.264012 292.959)" opacity="0" fill="none" stroke="url(#eKJMVGHQRxL4-stroke)"/><g transform="translate(.000001 0.000001)"><path d="M216.81,61.6107c-1.055-.2637-1.978-.9229-3.56-1.0547-1.45-.2637-2.241-.3956-3.428-.923s-3.824-4.2192-5.801-7.5154c-2.374-3.8236-3.956-9.0975-4.088-11.6027-.263-4.351-.131-12.9212-.263-15.8218-.264-3.0326-1.451-3.9555-3.033-4.6147-1.846-.923-3.296-.5274-3.56,3.8236-.132,4.351-.263,12.6575.923,18.327.659,2.7688,1.978,7.1198,5.01,12.1301c2.11,3.428,4.351,5.8013,7.12,8.702.791.7911,1.187,1.5822,2.505,3.2962c1.319,1.714,3.165,3.2962,4.879,3.9555c1.714.6592,2.373.6592,2.637.3955.395-.3955.132-.7911-.528-1.1866-.659-.3956-1.977-.923-3.164-2.2415c0,0,1.582.923,2.505,1.4504s1.978.7911,2.769.9229c.923.1319,1.846-.7911,1.187-1.1866-.66-.3956-1.319-.5274-2.769-1.3185-1.319-.6592-2.11-1.4503-2.11-1.4503s1.582.6592,3.033,1.0548c1.45.3955,2.109.1318,2.505.1318.395-.1319.791-.7911-.132-1.1866-.923-.3956-2.11-.3956-3.692-1.3185-1.055-.6593-1.846-1.3185-1.582-1.4504.264-.1318.923.3956,1.978.3956c1.055.1318,2.241-.5274,2.241-1.0548-.263-.6593-.527-.3956-1.582-.6593Z" fill="#b4b4c0"/><path d="M193.868,19.6821c-1.714,1.3185-2.505,3.6917-1.977,10.9434.527,7.2517,1.45,12.6575,3.296,17.2722c1.714,4.6147,4.878,9.8887,9.493,14.1079c0,0,.659-2.3733,3.56-3.9555c0,0-5.01-6.8561-6.724-11.339-1.715-4.351-1.715-11.4709-1.715-15.4263s.396-7.6473-1.186-9.8887c-1.451-2.1096-3.956-2.2414-4.747-1.714Z" fill="#e4f2f2"/><path d="M191.363,126.612c0,0-.132,1.187-.263,2.11-.264.923-.396,2.505-.132,3.296.263.791,2.109,1.714,3.296,1.846s3.164,1.318,3.824,2.11c1.054,1.186,3.691,1.977,5.405,1.714c1.714-.264,3.56-.791,3.956-1.451.395-.659-.264-1.45-3.824-3.823-3.692-2.374-6.065-3.692-7.251-6.065l-5.011.263Z" fill="#e1e1e6"/><path d="M176.333,132.018c-.396.923-1.055,1.45-.923,3.955.131,2.505,0,3.428-.264,5.538-.264,1.977.791,4.878,1.714,6.065.923,1.318,3.692,1.582,4.483-.791.791-2.374,1.055-4.219.395-6.593-.527-2.373.132-4.087-.132-5.669-.395-1.582-.922-2.637-.922-2.637h-4.351v.132Z" fill="#e1e1e6"/><path d="M176.333,67.8072c.132,2.637.923,13.976,1.318,19.9092.396,6.0651.396,13.3166.396,13.3166s-1.055,4.351-1.714,9.493s0,21.36,0,21.36s1.978,1.45,4.483,0c0,0,2.768-12.921,4.087-18.855c1.318-5.801,1.45-9.229,2.11-12.789.791-4.351,2.505-24.9194,2.505-24.9194h.659l1.846,23.0736c0,0-.659,1.8458-1.187,5.2738-.527,3.956.528,22.942.528,22.942s2.109,1.45,4.746-.132c0,0,4.615-25.051,4.615-28.8749c0-2.5052-.396-35.8629-.396-35.8629l-23.996,6.065Z" fill="#322f2f"/><path d="M189.517,75.4544c0,0,3.956-1.5822,6.065-3.1644c0,0-2.109,2.2415-3.164,2.9007s-.791,18.7225-.791,18.7225l-1.45-18.3269-.66-.1319Z" fill="#1d1b1b"/><path d="M182.529,17.4414c0,0,.264,5.6695.132,6.1969s-2.637,2.1096-3.296,2.7688c-.659.6593,3.956,5.1421,6.197,6.1969s9.493-1.714,9.625-5.2739c.132-3.56-1.187-6.4606-2.373-6.5925-1.055-.1318-10.285-3.2962-10.285-3.2962Z" fill="#b4b4c0"/><path d="M191.891,23.902c.791-.6592-.132-2.1096-.659-3.1644-2.374-.6592-8.702-3.2962-8.702-3.2962s0,1.3185.131,2.2414c0,1.0548.66,2.1096,1.583,2.7689.659.5274,1.45,1.0548,2.505,1.4503.923.3955,3.428,1.5822,5.142,0Z" fill="#9e9eae"/><path d="M182.002,24.5609c0,0,4.087,6.1969,9.889,6.7243c1.846-1.8459,1.977-8.1746-.528-10.1523c0,0,2.374-1.8459,3.956-1.4504c0,0,2.505,1.3185,3.56,4.4829c1.054,3.2962,2.109,7.1198,1.977,13.1849-.131,6.065,0,24.5239,0,24.5239s-.791,3.9554-6.065,6.8561-9.097,3.1644-12.657,2.3733c-2.901-.6593-5.274-1.7141-6.329-3.8236.264-4.2192,2.11-15.2945,1.45-20.5685-.659-5.2739-1.845-9.3612-2.109-13.5804-.264-4.351.527-4.2192,2.769-5.8013c2.9-2.2415,4.087-2.7689,4.087-2.7689Z" fill="#f5fbfb"/><path d="M178.969,75.8498c-.923-.6593-1.45-1.5822-2.769-2.5051-1.186-.7911-1.977-1.1867-2.768-2.2415-.792-1.1866-1.319-5.1421-1.715-8.9657-.527-4.4829.528-10.2842,1.319-12.7893c1.582-4.8784,4.878-11.6027,5.933-14.3716c1.055-2.7688.396-4.0873-.791-5.5376-1.318-1.5822-3.56-1.4503-5.669,2.3733-1.846,3.8236-4.747,10.9434-6.065,16.6129-.66,2.7688-1.319,7.2517-.66,13.0531.396,4.0873,1.451,7.1198,2.769,10.9434.396,1.0548.396,1.9777.791,3.9555.396,2.1096,1.451,4.351,2.637,5.6695c1.187,1.3185,1.846,1.5822,2.242,1.4503.527-.1318.527-.6592,0-1.3185-.528-.6592-1.451-1.714-1.978-3.428c0,0,.923,1.4503,1.582,2.3732.659.7911,1.45,1.5822,2.11,1.9778.791.5274,2.109.1318,1.582-.6593-.528-.6592-1.055-1.0548-1.978-2.3733-.923-.791-1.318-1.714-1.318-1.714s1.054,1.3185,2.241,2.2414c1.187.923,1.846,1.0548,2.241,1.1867.396.1318,1.055-.3956.396-1.1867-.659-.6592-1.714-1.3184-2.637-2.7688-.659-1.0548-1.055-1.9777-.791-1.9777s.659.6592,1.582,1.3185c.923.5274,2.242.5274,2.505,0c.264-.6593.132-.6593-.791-1.3185Z" fill="#b4b4c0"/><path d="M176.728,27.9894c-2.11.3955-4.219,2.7688-6.988,9.3612-2.637,6.7243-4.219,12.1301-4.615,17.0085-.395,4.8784.264,11.7346,2.769,17.0085c0,0,1.846-2.2414,5.142-2.5051c0,0-1.187-8.4383-.791-13.053.395-4.6147,2.769-10.6798,4.483-14.2397s3.56-6.4606,3.164-9.625c-.527-3.0325-2.373-4.0873-3.164-3.9554Z" fill="#e4f2f2"/><path d="M191.89,31.2852c0,0,.528-2.7688.528-4.2192-.132-1.9777-1.582-4.6147-1.582-4.6147v-1.5822c0,0,1.186.1319,2.109,1.3185.923,1.1867,2.505,3.6918,2.11,6.3288-.132.1318-.923,1.5822-3.165,2.7688Z" fill="#e4f2f2"/><path d="M191.891,31.2854c.395-.7911,1.186-3.56,1.582-3.9555.791-.2637,1.45,1.1866,1.45,1.1866s0,1.5822-.923,2.5052c-1.055.9229-2.109.2637-2.109.2637Z" fill="#f5fbfb"/><path d="M193.473,27.3295c-.396.3956-1.187,3.1644-1.582,3.9555c0,0,.395-.7911.923-1.3185.395-.5274.923-1.5822,2.241-1.4503-.132.1318-.791-1.4504-1.582-1.1867Z" fill="#c8dbda"/><path d="M182.793,22.5831c.132.923,4.747,4.351,5.801,4.7466c1.055.3955,3.165,3.9555,3.165,3.9555-1.714-.2637-3.033.3955-4.219,1.5821c0,0-6.593-2.7688-7.648-7.2516c0,0,1.187-2.3733,1.451-3.0326.132-.6592.659-1.3185,1.318-1.3185l.132,1.3185Z" fill="#e4f2f2"/><path d="M187.671,32.9993c0,0,.528-3.428,1.187-3.6917s3.033,2.1095,3.033,2.1095c-.923.6593-2.242,1.4504-4.22,1.5822Z" fill="#f5fbfb"/><path d="M188.858,29.1757c-.659.2637-1.187,3.6918-1.187,3.6918s1.846-1.714,2.374-1.8459c.527-.1318,1.846.2637,1.846.2637s-2.374-2.3733-3.033-2.1096Z" fill="#c8dbda"/><path d="M195.45,8.87098c-.659-4.48286-3.823-7.77908-8.438-7.51539-4.879.2637-8.57,4.48286-8.307,9.22941.132,2.9007,1.714,5.274,3.824,6.7243c0,0,.396,1.5822.659,1.9777c1.582,1.8459,6.461,3.0326,7.911,2.9007c1.846-.2637,2.769-1.0548,3.692-3.0325c1.582-3.4281,1.055-8.0428.659-10.28422Z" fill="#b4b4c0"/><path d="M194.791,5.31145c-1.846-2.90068-5.406-4.614714-9.097-3.82362-2.242.52739-4.22,1.84588-5.538,3.82362-1.714.65924-1.714,3.16437-1.714,3.95546.132,3.42809,1.582,6.32879,4.087,8.04279-.132-.2637-2.373-3.6918,0-4.4829.396.3956.528,1.0548.528,1.8459c0,0,1.186-.1318.923-1.4503-.132-.3956-.132-.7911-.264-1.0548-.264-1.0548,0-2.1096.659-3.03254.527-.79109.923-1.71403.659-2.90067c0,0,2.901,1.31849,6.725.52739c1.582-.39554,2.637-.92294,3.032-1.45033Z" fill="#474343"/><path d="M180.156,5.31108c0,0-.527-1.71403,1.714-3.42807c2.637-1.977732,6.461-1.582186,10.416,0c2.505,1.05479,6.461-.2637,5.67,2.63698-1.055,4.21916-9.362,4.61471-12.922,1.71403-.263-.13185-2.9-1.31849-4.878-.92294Z" fill="#474343"/><path d="M182.529,17.3094c0,0-.263.5274-1.055.5274-1.582.1318-3.428-2.9007-2.241-4.8784.791-1.3185,2.637-.7911,3.164,0l.132,4.351Z" fill="#b4b4c0"/></g><g transform="translate(.000001 0)"><path d="M527.064,213.052c.573,1.578-.143,2.869-.573,4.304-.86,2.582-.716,6.169-.716,6.169-.144.287-1.29.431-1.576-.143c0,0,.143-5.883-1.433-5.309l4.298-5.021Z" fill="#e3d8db"/><path d="M513.882,222.09c1.576-2.295,4.155-9.756,4.585-11.478.287-.717.86-2.152.716-3.73c0-2.582-.859-9.756-.859-9.756h6.161l-.143,9.326c0,1.434.143,1.865.43,2.869.286.861,1.146,2.726,1.432,3.587.287,1.148.86,2.296-1.003,3.73-1.719,1.435-2.865,2.296-4.012,3.731-1.146,1.434-1.003,3.299-2.865,5.021-1.863,1.722-5.302.431-6.018-.143-.717-.861-.43-1.579,1.576-3.157Z" fill="#b4b4c0"/><path d="M514.168,224.099c3.869,1.004,4.729.43,5.875-4.017.86-3.444,1.576-5.739,3.152-7.174c1.72-1.578,1.863-2.439,1.863-3.587.43,0,.573.287.86,1.148.573,2.009,1.29,2.009,1.29,3.443c0,1.435-.86,2.583-2.006,3.3-1.72,1.148-2.15,1.578-3.01,3.3-1.003,2.009-.716,4.161-1.432,5.883-2.723,2.152-5.589,3.443-10.03,1.434-.86-2.295-1.577-3.3,3.152-5.739-.86,1.005-1.146,1.579.286,2.009Z" fill="#e3d8db"/><path d="M537.524,215.634c.43,1.004,1.147,2.152,1.003,4.878-.286,2.726-.859,2.152-.573,5.739.143,2.295,1.146,5.021,0,6.743-2.006,2.009-7.451,1.722-8.454.717-.286-1.004-.573-1.865-.43-2.726.144-.717,1.29-1.578,1.576-2.295.144-.574.287-1.291.574-2.296.716-3.156,1.433-10.76,1.433-10.76h4.871Z" fill="#e3d8db"/><path d="M533.369,229.838c1.146,0,2.436-.431,2.436-.431.43-.143.716-.717.716-1.434.287-1.722-.286-3.731.43-6.17.717-2.439.86-3.73.573-6.313-.429-2.582-.143-6.456-.143-6.456l-5.158-.143c0,0,.286,4.304.143,6.456c0,2.152-.43,9.182-.86,11.478-.286,1.148-.429,1.578-.286,2.008c0,.287.43.861,2.149,1.005Z" fill="#b4b4c0"/><path d="M524.915,70.2955c1.147-1.8652,10.03-3.1564,13.039,4.4476c1.147,2.8695,1.003,10.1866,1.863,14.7777c1.003,4.5911,3.152,7.1737,3.869,10.9042.716,3.73-.43,10.043-9.457,11.047-9.027,1.148-15.905-2.008-18.054-4.878-2.15-2.869-2.15-8.8952,0-12.1951c2.149-3.2999,3.869-5.8824,3.869-10.1866l4.871-13.9168Z" fill="#474343"/><path d="M480.209,120.655c1.147.43,2.293.287,3.869,1.004c1.433.574,2.293,1.004,3.726,1.148c1.433.143,5.588-1.148,9.313-3.156c4.442-2.296,9.027-6.457,10.89-8.609c3.869-4.591,8.024-11.4777,9.314-14.0602c1.576-3.0129,3.582-3.5868,5.445-3.2999c2.149.287,3.152,1.5782.859,5.7389-2.292,4.1612-6.877,11.3342-11.319,16.0692-2.15,2.295-5.732,5.595-11.32,8.465-4.012,2.008-7.451,3.156-11.749,4.304-1.147.287-2.006.861-4.156,1.578-2.149.861-4.872,1.291-6.734,1.004-1.863-.287-2.579-.717-2.723-1.147-.143-.574.287-.861,1.147-.718.859,0,2.292.287,4.155-.287c0,0-2.006,0-3.152-.143-1.147-.144-2.293-.431-3.009-.718-1.003-.43-1.29-1.865-.43-1.865.859,0,1.576.287,3.295.431c1.576.143,2.723-.144,2.723-.144s-1.863-.287-3.439-.717c-1.576-.431-2.006-1.004-2.436-1.435-.287-.43-.287-1.291.86-1.148c1.003.144,2.149.861,4.155.861c1.433,0,2.436-.143,2.293-.43-.144-.144-1.003-.144-2.15-.718-1.003-.573-1.719-1.721-1.433-2.295.717-.574.86-.144,2.006.287Z" fill="#b4b4c0"/><path d="M525.058,70.4385c0,0-3.152-2.726-7.021,1.1478-2.436,2.439-2.292,7.3171-1.719,9.4692s2.579,4.7346,4.155,4.8781c1.72,0,4.585-15.4951,4.585-15.4951Z" fill="#474343"/><path d="M540.963,136.867c1.863,8.035-.716,20.517-1.146,27.117s-1.003,14.204-1.003,14.204s2.006,6.886,1.863,12.195c-.144,5.595-3.439,21.808-3.439,21.808s-2.15,1.578-4.872,0c0,0-.86-13.917-1.576-20.517-.717-6.743-1.003-11.621-1.72-15.639-.859-4.878-2.722-31.277-2.722-31.277l-.287,4.018-2.436,25.968c0,0,1.72,3.731,1.72,6.743c0,4.161-.86,23.53-.86,23.53s-2.292,1.722-5.158,0c0,0-4.012-26.542-4.585-29.699-.573-2.869-1.72-32.855.573-39.742l25.648,1.291Z" fill="#322f2f"/><path d="M533.369,87.3691c0,0-.43,7.4606-.287,8.0345.144.5739,2.866,1.1478,3.726,1.7217.716.7174-4.012,8.1777-6.591,9.3257-2.436,1.148-10.174-1.722-10.604-5.595-.429-3.4438,2.15-6.1697,3.153-7.1741.716-.1434,1.862,0,2.149,0l.287-3.5868c3.295-1.1478,8.167-2.726,8.167-2.726Z" fill="#b4b4c0"/><path d="M534.372,96.121c2.149.2869,4.442,1.4347,4.872,2.5825.429,1.2912,1.146,7.7475-.574,12.4825-1.862,4.878-4.012,8.034-5.015,10.186c0,0-8.024,2.439-15.331-2.152c0,0-.717-3.874-.717-6.743-6.734-5.883-1.003-13.1996,4.729-18.7951.573-.1434,1.576,0,2.006,0c0,0-3.439,8.6081-1.576,9.4691c2.722,1.148,9.17-5.7388,11.606-7.03Z" fill="#f5fbfb"/><path d="M524.915,92.9646l.143-2.8695l2.436-.7173l5.875-2.0087c0,0,0,1.2913-.143,2.2956c0,0-.287,2.5825-4.442,4.5911-.717.287-3.582.5739-3.869-1.2912Z" fill="#9e9eae"/><path d="M519.327,78.0427c.716-4.8781,4.155-8.4649,9.17-8.178c5.302.287,9.314,4.8781,9.027,10.0431-.143,3.1564-1.863,5.7389-4.155,7.3171c0,0-.43,1.7217-.717,2.1521-1.719,2.0086-6.448,3.2999-8.024,3.2999-1.289,0-2.436-1.2913-3.725-3.2999-2.579-4.1607-2.006-9.0388-1.576-11.3343Z" fill="#b4b4c0"/><path d="M519.756,75.0301c2.15-4.3042,6.305-5.8824,10.317-5.0216c3.439.5739,6.161,3.2999,7.164,6.5998c1.29,4.4477-.716,8.4649-3.868,10.617.143-.287,2.579-4.0173,0-4.8781c0,.287-.144,1.7217-.287,2.5825c0,0-1.289.1435-1.146-1.4347c0-.4304.143-1.1478.143-1.4347c0-1.1478,0-1.8652-.573-2.8695-.287-.4304-.43-.8608-.573-1.4347-.43-1.2913-1.433-2.4391-2.723-3.013-1.289-.4304-3.009-.2869-4.871,1.8652-2.006-3.2999-3.009-2.1521-3.583-1.5782Z" fill="#474343"/><path d="M533.369,87.3692c0,0,.286.4304,1.146.5739c1.72,0,3.726-3.2999,2.436-5.452-.86-1.4347-2.866-.8608-3.439-.1435l-.143,5.0216Z" fill="#b4b4c0"/><path d="M534.085,120.368c-.573,1.004-.573,2.439,1.147,4.878c1.719,2.439,5.158,7.46,5.731,11.621-1.433,1.435-3.295,4.448-9.17,5.309-8.454,1.291-14.902-2.439-16.908-4.592c0,0,.143-3.586,1.576-10.043.86-3.873,1.433-5.308,1.72-8.321.573-3.013,15.904,1.148,15.904,1.148Z" fill="#f5fbfb"/><path d="M534.346,123.524c1.025,1.578,1.756,3.013,3.658,5.595c1.756,2.439,5.267,7.748,4.389,17.074-.585,6.025-3.553,31.99-3.553,31.99s1.505,4.452,1.944,10.047c.585,5.452-3.365,23.96-3.365,23.96s-.878.861-2.78.861-2.487-1.004-2.487-1.004-.732-10.33-1.024-15.782c-.439-5.452-1.317-13.917-1.61-16.069-.292-2.152-1.024-5.883-1.316-10.043-.293-4.161-1.902-25.395-1.902-25.395l-.293,4.017c0,0-.146,6.456-1.171,14.491-.877,8.034-1.199,11.516-1.199,11.516s1.492,2.975,1.785,5.127c.292,2.152-.924,25.111-.924,25.111s-.832,1.288-3.027,1.431c-2.194.287-2.779-.43-2.779-.43s-3.366-23.96-3.804-26.399c-.439-2.439-.732-3.731-1.171-11.335-.439-7.747-.293-24.39.439-30.559.585-6.17,3.457-15.119,3.457-15.119s2.395,1.632,6.346,1.919c3.95.144,10.387-1.004,10.387-1.004Z" fill="#332f2f"/><path d="M517.607,137.584c0,0,.86,2.009,3.296,4.161s5.588,3.013,5.588,3.013l-.287,4.017c0,0-.143,6.456-1.146,14.491-.573,4.304-.86,7.317-1.003,9.182l.287-26.112c-5.875-2.726-6.735-8.752-6.735-8.752Z" fill="#1d1b1b"/><path d="M533.799,121.228c0,0-5.445,1.578-9.314,1.291-4.298-.43-5.731-1.578-6.304-2.439c0,0-.717,1.578-.574,2.583c1.863,2.152,4.299,2.726,7.738,2.726c4.012,0,8.454-1.435,9.027-2.009.143.143-.43-1.148-.573-2.152Z" fill="#5c5656"/><path d="M532.366,148.488c1.003-.718,1.576-1.579,3.152-2.583c1.29-.717,2.15-1.291,3.153-2.295c1.003-1.005,2.292-5.309,3.009-9.47.716-4.878,0-11.191-.574-13.916-1.432-5.739-4.585-13.2-5.874-15.783-1.576-3.012-1.003-5.1645.573-6.3123c1.719-1.2913,3.439-.7174,5.158,2.5823c2.006,4.161,5.158,12.339,6.305,18.652.573,3.013,1.146,7.891.143,14.06-.716,4.448-1.719,7.891-3.439,11.908-.43,1.148-.573,2.009-1.146,4.304-.86,2.439-2.006,4.879-3.439,6.17s-2.149,1.578-2.436,1.434c-.43-.143-.43-.717.143-1.434.574-.718,1.577-1.722,2.293-3.587c0,0-1.146,1.578-1.863,2.439-.716.861-1.719,1.578-2.292,2.009-.86.573-2.293,0-1.72-.718.573-.717,1.147-1.148,2.293-2.439c1.003-1.148,1.576-2.295,1.576-2.295s-1.29,1.434-2.579,2.295c-1.29,1.005-2.006,1.005-2.579,1.148-.43,0-1.147-.574-.43-1.291.716-.718,1.863-1.292,3.009-2.87.86-1.148,1.289-2.008,1.003-2.008-.287,0-.717.717-1.863,1.291-1.003.574-2.436.43-2.722-.144-.144-.573.143-.43,1.146-1.147Z" fill="#b4b4c0"/></g><rect id="eKJMVGHQRxL48" width="25.2337" height="100.935" rx="0" ry="0" transform="matrix(0 0 1 0.57735 307.745953 190.662292)" opacity="0.3" fill="url(#eKJMVGHQRxL48-fill)"/><rect id="eKJMVGHQRxL49" width="25.2337" height="100.935" rx="0" ry="0" transform="matrix(0 0-1 0.57735 226.043 188.577)" opacity="0.3" fill="url(#eKJMVGHQRxL49-fill)"/><g transform="translate(.000001 0.000001)"><g transform="translate(.000001 0)"><path d="M346.931,154.978v13.621c-2.703-1.529-8.172-4.661-8.418-4.962-.247-.301-.673-7.061-.856-10.403l9.274,1.744Z" fill="#18171e"/><path d="M203.428,168.91v-13.674c2.703,1.529,8.119,2.658,8.366,2.96.246.301.673,7.061.855,10.403l-9.221.311Z" fill="#18171e"/><path d="M253.435,132.284c12.042-6.881,31.437-6.881,43.48,0l40.852,23.344c12.22,6.983,12.22,18.381,0,25.364l-40.852,23.344c-12.043,6.881-31.438,6.881-43.48,0l-40.852-23.344c-12.22-6.983-12.22-18.381,0-25.364l40.852-23.344Z" fill="#18171e"/><path d="M253.636,118.54c11.931-6.817,31.146-6.817,43.078,0l41.259,23.577c12.106,6.918,12.106,18.21,0,25.128l-41.259,23.577c-11.932,6.818-31.147,6.818-43.078,0l-41.259-23.577c-12.106-6.918-12.106-18.21,0-25.128l41.259-23.577Z" fill="url(#eKJMVGHQRxL55-fill)"/></g><g id="eKJMVGHQRxL56" opacity="0"><path d="M254.067,124.973c11.693-6.682,30.523-6.682,42.216,0l30.442,17.395c11.864,6.78,11.864,17.846,0,24.626L296.283,184.39c-11.693,6.681-30.523,6.681-42.216,0l-30.442-17.396c-11.864-6.78-11.864-17.846,0-24.626l30.442-17.395Z" fill="none" stroke="#ff3d3d"/></g><g><circle r="2.42309" transform="matrix(.866025 0.5 0 1 212.709 174.74)" opacity="0.1" fill="#ffe9e9"/><circle r="2.42309" transform="matrix(.866025 0.5 0 1 220.317 178.848)" opacity="0.1" fill="#ffe9e9"/><circle r="2.42309" transform="matrix(.866025 0.5 0 1 228.142 183.694)" opacity="0.1" fill="#ffe9e9"/></g><g id="eKJMVGHQRxL62" transform="translate(.000016 0.000012)" opacity="0.1"><path d="M253.435,118.655c12.043-6.882,31.437-6.882,43.48,0l40.852,23.344c12.22,6.982,12.22,18.38,0,25.363l-40.852,23.344c-12.043,6.882-31.437,6.882-43.48,0l-40.852-23.344c-12.22-6.983-12.22-18.381,0-25.363l40.852-23.344Z" fill="#ff3d3d"/><path d="M253.435,85.8555c12.043-6.8816,31.437-6.8816,43.48,0L337.767,109.2c12.22,6.982,12.22,18.38,0,25.363l-40.852,23.344c-12.043,6.882-31.437,6.882-43.48,0l-40.852-23.344c-12.22-6.983-12.22-18.381,0-25.363l40.852-23.3445Z" fill="#ff3d3d"/><path d="M346.959,154.271v-32.87l-26.736,15.065l2.024,17.447l24.712.358Z" fill="#ff3d3d"/><path d="M203.418,121.401v32.87l26.737-15.066-2.025-17.447-24.712-.357Z" fill="#ff3d3d"/></g><g transform="translate(.000001 0)"><path d="M346.931,106.725v13.621c-2.703-1.529-8.172-4.661-8.418-4.962-.247-.301-.673-7.061-.856-10.403l9.274,1.744Z" fill="#18171e"/><path d="M203.428,120.658v-13.675c2.703,1.529,8.119,2.659,8.366,2.96.246.301.673,7.061.855,10.403l-9.221.312Z" fill="#18171e"/><path d="M253.435,84.0313c12.042-6.8816,31.437-6.8816,43.48,0l40.852,23.3437c12.22,6.983,12.22,18.381,0,25.364l-40.852,23.344c-12.043,6.881-31.438,6.881-43.48,0l-40.852-23.344c-12.22-6.983-12.22-18.381,0-25.364l40.852-23.3437Z" fill="#18171e"/><path d="M253.636,70.2875c11.931-6.8179,31.146-6.8179,43.078,0L337.973,93.864c12.106,6.918,12.106,18.211,0,25.129l-41.259,23.576c-11.932,6.818-31.147,6.818-43.078,0l-41.259-23.576c-12.106-6.918-12.106-18.211,0-25.129l41.259-23.5765Z" fill="url(#eKJMVGHQRxL71-fill)"/></g></g><g id="eKJMVGHQRxL72" transform="matrix(0 0 0 0 275.174995 106.428207)"><path d="M254.067,76.7198c11.693-6.6815,30.523-6.6815,42.216,0l30.442,17.3954c11.864,6.7798,11.864,17.8468,0,24.6258l-30.442,17.396c-11.693,6.681-30.523,6.681-42.216,0l-30.442-17.396c-11.864-6.779-11.864-17.846,0-24.6257l30.442-17.3955Z" fill="none" stroke="#ff3d3d"/></g><g id="eKJMVGHQRxL74" transform="matrix(0 0 0 0 275.17502 103.039001)"><g transform="translate(0 16.018354)" opacity="0.3" filter="url(#eKJMVGHQRxL75-filter)"><path d="M256.286,50.1377c10.464-5.979,27.314-5.979,37.778-.0001c10.616,6.0668,10.616,15.9699,0,22.0367-10.464,5.979-27.314,5.979-37.778,0-10.616-6.0668-10.616-15.9698,0-22.0366Z" fill="url(#eKJMVGHQRxL76-fill)"/></g><path d="M288.875,48.7225c-2.475-2.036-5.374-3.4936-8.484-4.2666-3.111-.773-6.355-.8418-9.495-.2015-4.182.8447-8.019,2.9125-11.023,5.9411-3.005,3.0286-5.042,6.8815-5.854,11.0698-.592,3.1403-.485,6.3727.316,9.4667.8,3.0939,2.273,5.9732,4.314,8.4324c1.894,2.1373,2.979,4.8705,3.068,7.7248v8.0748c0,2.1416.851,4.1954,2.365,5.71c1.515,1.514,3.568,2.365,5.71,2.365h10.766c2.142,0,4.196-.851,5.71-2.365c1.514-1.5146,2.365-3.5684,2.365-5.71v-7.5634c.09-3.1514,1.248-6.1787,3.284-8.5861c3.567-4.4121,5.248-10.0536,4.678-15.6984-.569-5.6448-3.344-10.8367-7.72-14.4475v.0539ZM283.25,94.964c0,.7139-.284,1.3985-.788,1.9033-.505.5047-1.19.7883-1.904.7883h-10.766c-.714,0-1.399-.2836-1.903-.7883-.505-.5048-.789-1.1894-.789-1.9033v-2.6916h16.15v2.6916Zm4.495-19.4871c-2.706,3.21-4.285,7.2189-4.495,11.4123h-5.383v-8.0747c0-.7139-.284-1.3985-.789-1.9033-.504-.5047-1.189-.7883-1.903-.7883s-1.398.2836-1.903.7883c-.505.5048-.788,1.1894-.788,1.9033v8.0747h-5.384c-.071-4.1232-1.596-8.0888-4.306-11.197-1.788-2.1425-2.991-4.7118-3.49-7.4574-.5-2.7457-.279-5.5739.64-8.2089s2.505-4.9869,4.603-6.8264c2.099-1.8395,4.639-3.1038,7.371-3.6695c2.349-.4836,4.776-.4381,7.104.1331c2.329.5712,4.502,1.6539,6.36,3.1693c1.858,1.5155,3.355,3.4257,4.383,5.592s1.561,4.5343,1.56,6.9321c.02,3.6871-1.246,7.2659-3.58,10.1204Z" fill="url(#eKJMVGHQRxL77-fill)"/></g><g transform="translate(.000001 0.000001)"><g transform="translate(.000001 0)"><path d="M509.029,247.974v13.621c-2.703-1.529-8.172-4.661-8.418-4.962-.247-.301-.673-7.061-.856-10.403l9.274,1.744Z" fill="#18171e"/><path d="M365.526,261.907v-13.675c2.703,1.529,8.119,2.659,8.366,2.96.246.301.673,7.061.855,10.403l-9.221.312Z" fill="#18171e"/><path d="M415.533,225.28c12.042-6.881,31.437-6.881,43.48,0l40.852,23.344c12.22,6.983,12.22,18.381,0,25.364l-40.852,23.344c-12.043,6.881-31.438,6.881-43.48,0l-40.852-23.344c-12.22-6.983-12.22-18.381,0-25.364l40.852-23.344Z" fill="#18171e"/><path d="M415.734,211.537c11.931-6.818,31.146-6.818,43.077-.001l41.259,23.577c12.107,6.918,12.107,18.211,0,25.129l-41.259,23.576c-11.931,6.818-31.146,6.818-43.077,0l-41.259-23.576c-12.107-6.918-12.106-18.211,0-25.129l41.259-23.576Z" fill="url(#eKJMVGHQRxL83-fill)"/></g><g id="eKJMVGHQRxL84" opacity="0"><path d="M416.165,217.969c11.692-6.682,30.523-6.682,42.216,0l30.442,17.395c11.864,6.78,11.864,17.847,0,24.626l-30.442,17.396c-11.693,6.681-30.524,6.681-42.216,0L385.723,259.99c-11.865-6.779-11.865-17.846,0-24.626l30.442-17.395Z" fill="none" stroke="#ff3d3d"/></g><g transform="translate(0 0.000001)"><circle r="2.42309" transform="matrix(.866025 0.5 0 1 374.806 267.736)" opacity="0.1" fill="#ffe9e9"/><circle r="2.42309" transform="matrix(.866025 0.5 0 1 382.415 271.845)" opacity="0.1" fill="#ffe9e9"/><circle r="2.42309" transform="matrix(.866025 0.5 0 1 390.24 276.69)" opacity="0.1" fill="#ffe9e9"/></g><g id="eKJMVGHQRxL90" opacity="0.1" filter="url(#eKJMVGHQRxL90-filter)"><path d="M415.533,211.651c12.042-6.882,31.437-6.882,43.48,0l40.852,23.344c12.22,6.982,12.22,18.38,0,25.363l-40.852,23.344c-12.043,6.882-31.438,6.882-43.48,0l-40.852-23.344c-12.22-6.983-12.22-18.381,0-25.363l40.852-23.344Z" fill="#ff3d3d"/><path d="M415.533,178.852c12.042-6.882,31.437-6.882,43.48,0l40.852,23.344c12.22,6.982,12.22,18.38,0,25.363l-40.852,23.344c-12.043,6.882-31.438,6.882-43.48,0l-40.852-23.344c-12.22-6.983-12.22-18.381,0-25.363l40.852-23.344Z" fill="#ff3d3d"/><path d="M509.057,247.267v-32.87L482.32,229.462l2.025,17.447l24.712.358Z" fill="#ff3d3d"/><path d="M365.516,214.397v32.87l26.736-15.066-2.024-17.447-24.712-.357Z" fill="#ff3d3d"/></g><g transform="translate(.000001 0)"><path d="M509.029,199.721v13.621c-2.703-1.529-8.172-4.661-8.418-4.962-.247-.301-.673-7.061-.856-10.403l9.274,1.744Z" fill="#18171e"/><path d="M365.526,213.654v-13.675c2.703,1.529,8.119,2.659,8.366,2.96.246.301.673,7.061.855,10.403l-9.221.312Z" fill="#18171e"/><path d="M415.533,177.027c12.042-6.881,31.437-6.881,43.48,0l40.852,23.344c12.22,6.983,12.22,18.381,0,25.364l-40.852,23.344c-12.043,6.882-31.438,6.882-43.48,0l-40.852-23.344c-12.22-6.983-12.22-18.381,0-25.364l40.852-23.344Z" fill="#18171e"/><path d="M415.734,163.284c11.931-6.818,31.146-6.818,43.077,0L500.07,186.86c12.107,6.918,12.107,18.211,0,25.129l-41.259,23.576c-11.931,6.818-31.146,6.818-43.077,0l-41.259-23.576c-12.107-6.918-12.106-18.211,0-25.129l41.259-23.576Z" fill="url(#eKJMVGHQRxL99-fill)"/></g></g><g id="eKJMVGHQRxL100" transform="matrix(0 0 0 0 437.272629 199.424118)"><path d="M416.165,169.716c11.692-6.682,30.523-6.682,42.216,0l30.442,17.395c11.864,6.78,11.864,17.847,0,24.626l-30.442,17.396c-11.693,6.681-30.524,6.681-42.216,0l-30.442-17.396c-11.865-6.779-11.865-17.846,0-24.626l30.442-17.395Z" fill="none" stroke="#ff3d3d"/></g><g id="eKJMVGHQRxL102" transform="matrix(0 0 0 0 437.272522 200.471001)"><g transform="translate(0 19.520752)" opacity="0.3" filter="url(#eKJMVGHQRxL103-filter)"><path d="M418.384,143.134c10.463-5.979,27.314-5.979,37.777,0c10.617,6.067,10.617,15.97,0,22.036-10.463,5.979-27.314,5.979-37.777,0-10.617-6.066-10.617-15.969,0-22.036Z" fill="url(#eKJMVGHQRxL104-fill)"/></g><path d="M460.073,167.484c-.216-.437-.548-.804-.958-1.061-.409-.257-.881-.394-1.362-.396h-13.038v-15.897c.028-.581-.133-1.155-.458-1.634s-.796-.836-1.341-1.016c-.523-.175-1.088-.177-1.613-.005-.524.171-.982.507-1.307.959l-20.86,29.145c-.262.384-.418.831-.455,1.296-.037.466.048.932.246,1.354.183.481.499.898.912,1.199.412.302.902.474,1.409.496h13.037v15.898c.001.558.175,1.103.498,1.555s.779.788,1.301.962c.262.082.535.127.809.132.411.001.817-.097,1.184-.285.367-.189.685-.464.928-.801l20.86-29.145c.281-.395.449-.862.486-1.348.036-.486-.06-.973-.278-1.408ZM439.5,189.661v-10.386c0-.703-.274-1.377-.763-1.874s-1.153-.776-1.844-.776h-10.43L439.5,158.29v10.387c0,.702.275,1.376.764,1.873s1.152.776,1.844.776h10.43L439.5,189.661Z" fill="url(#eKJMVGHQRxL105-fill)"/></g><g transform="translate(.000001 0.000001)"><g transform="translate(.000001 0)"><path d="M40.029,247.974v13.621c2.7035-1.529,8.172-4.661,8.4184-4.962s.673-7.061.8555-10.403l-9.2739,1.744Z" fill="#18171e"/><path d="M183.532,261.907v-13.675c-2.703,1.529-8.119,2.659-8.366,2.96-.246.301-.673,7.061-.855,10.403l9.221.312Z" fill="#18171e"/><path d="M133.526,225.28c-12.043-6.881-31.438-6.881-43.4806,0L49.1932,248.624c-12.2197,6.983-12.2197,18.381,0,25.364l40.8522,23.344c12.0426,6.881,31.4376,6.881,43.4806,0l40.852-23.344c12.219-6.983,12.219-18.381,0-25.364L133.526,225.28Z" fill="#18171e"/><path d="M133.324,211.537c-11.931-6.818-31.146-6.818-43.0774-.001l-41.259,23.577c-12.1065,6.918-12.1066,18.211,0,25.129l41.259,23.576c11.9314,6.818,31.1464,6.818,43.0774,0l41.259-23.576c12.106-6.918,12.106-18.211,0-25.129l-41.259-23.576Z" fill="url(#eKJMVGHQRxL111-fill)"/></g><g id="eKJMVGHQRxL112" opacity="0"><path d="M132.893,217.969c-11.692-6.682-30.523-6.682-42.2157,0l-30.442,17.395c-11.8644,6.78-11.8644,17.847,0,24.626l30.442,17.396c11.6927,6.681,30.5237,6.681,42.2157,0l30.442-17.396c11.865-6.779,11.865-17.846,0-24.626l-30.442-17.395Z" fill="none" stroke="#ff3d3d"/></g><g><circle r="2.42309" transform="matrix(-.866025 0.5 0 1 174.251 267.735)" opacity="0.1" fill="#ffe9e9"/><circle r="2.42309" transform="matrix(-.866025 0.5 0 1 166.643 271.845)" opacity="0.1" fill="#ffe9e9"/><circle r="2.42309" transform="matrix(-.866025 0.5 0 1 158.818 276.69)" opacity="0.1" fill="#ffe9e9"/></g><g id="eKJMVGHQRxL118" opacity="0.1" filter="url(#eKJMVGHQRxL118-filter)"><path d="M133.525,211.652c-12.042-6.882-31.437-6.882-43.4797,0L49.1931,234.996c-12.2197,6.982-12.2197,18.38,0,25.363l40.8522,23.344c12.0427,6.882,31.4377,6.882,43.4797,0l40.852-23.344c12.22-6.983,12.22-18.381,0-25.363l-40.852-23.344Z" fill="#ff3d3d"/><path d="M133.525,178.853c-12.042-6.882-31.437-6.882-43.4797,0L49.1931,202.197c-12.2197,6.982-12.2197,18.38,0,25.363l40.8522,23.344c12.0427,6.882,31.4377,6.882,43.4797,0l40.852-23.344c12.22-6.983,12.22-18.381,0-25.363l-40.852-23.344Z" fill="#ff3d3d"/><path d="M40.0012,247.268v-32.87l26.7365,15.065-2.0246,17.447-24.7119.358Z" fill="#ff3d3d"/><path d="M183.542,214.398v32.87l-26.736-15.066l2.024-17.447l24.712-.357Z" fill="#ff3d3d"/></g><g transform="translate(.000001 0)"><path d="M40.029,199.721v13.621c2.7035-1.529,8.172-4.661,8.4184-4.962s.673-7.061.8555-10.403l-9.2739,1.744Z" fill="#18171e"/><path d="M183.532,213.654v-13.675c-2.703,1.529-8.119,2.659-8.366,2.96-.246.301-.673,7.061-.855,10.403l9.221.312Z" fill="#18171e"/><path d="M133.526,177.027c-12.043-6.881-31.438-6.881-43.4806,0L49.1932,200.371c-12.2197,6.983-12.2197,18.381,0,25.364l40.8522,23.344c12.0426,6.882,31.4376,6.882,43.4806,0l40.852-23.344c12.219-6.983,12.219-18.381,0-25.364l-40.852-23.344Z" fill="#18171e"/><path d="M133.324,163.284c-11.931-6.818-31.146-6.818-43.0774,0L48.9876,186.86c-12.1065,6.918-12.1066,18.211,0,25.129l41.259,23.576c11.9314,6.818,31.1464,6.818,43.0774,0l41.259-23.576c12.106-6.918,12.106-18.211,0-25.129l-41.259-23.576Z" fill="url(#eKJMVGHQRxL127-fill)"/></g></g><g id="eKJMVGHQRxL128" transform="matrix(0 0 0 0 111.785374 199.424118)"><path d="M132.893,169.716c-11.692-6.682-30.523-6.682-42.2157,0l-30.442,17.395c-11.8644,6.78-11.8644,17.847,0,24.626l30.442,17.396c11.6927,6.681,30.5237,6.681,42.2157,0l30.442-17.396c11.865-6.779,11.865-17.846,0-24.626l-30.442-17.395Z" fill="none" stroke="#ff3d3d"/></g><g transform="translate(.000001 0)"><path d="M244.918,191.643c.341,2.731,3.757,14.342,3.074,18.61-.683,4.098-12.295,11.61-12.295,11.61l-1.537-7.171l4.952-4.78c.854-.854,1.366-2.22,1.195-3.415l-1.537-9.732l6.148-5.122Z" fill="#ffa8a7"/><path d="M238.941,205.814l-4.781-21.343c-.683-8.024,6.66-7.171,8.367-4.439c1.708,2.732,5.123,21.001,5.294,22.708.683,4.098.683,6.147.341,7.854-.341,1.708-4.439,6.488-12.294,11.269l-1.537-7.171l4.61-8.878Z" fill="#e4f2f2"/><path d="M237.746,306.72c0,0,.171,1.195.512,2.732.342,1.195.342,2.731-1.024,3.244-1.366.512-2.903.341-3.757-.854-1.024-1.537-1.707-3.244-3.244-4.781-1.537-1.366-3.416-2.902-3.928-5.122-.512-2.049-.171-3.244,1.196-3.415c1.707-.17,4.439,1.195,5.805,2.22.854.854,4.44,5.976,4.44,5.976Z" fill="#e5d0d1"/><path d="M219.304,318.33c0,0,.171,1.537.171,2.903.17,1.195.512,3.244.17,4.097-.341.854-2.39,1.537-4.952,1.537-1.537,0-4.61,1.195-5.635,2.22-1.537,1.365-5.123,1.878-7.172,1.195s-4.44-1.537-4.781-2.561c-.342-1.025.683-1.366,5.806-3.757c5.123-2.39,8.879-3.927,10.758-6.658l5.635,1.024Z" fill="#e5d0d1"/><path d="M238.941,279.743c-.853-6.658-2.219-10.585-2.219-10.585s.683-9.22,1.024-17.757c.342-9.391.854-21.172,1.025-23.391l-30.396,6.829c0,0,1.879,36.367,2.22,41.148.342,4.781.683,11.439,1.195,17.415.684,7.683,1.367,24.928,1.367,24.928c3.244,1.878,6.147,1.195,6.147,1.195s2.561-21.342,3.074-26.806c.512-7.341-1.366-13.659-1.366-13.659s.853-9.39,1.536-17.244c.683-6.83,1.537-11.098,1.537-14.342l.683-.342c0,0,.683,13.489,1.025,18.099.341,4.78,1.024,9.39,2.391,18.098c1.195,7.683,3.927,23.562,3.927,23.562c3.245,1.878,5.464.17,5.464.17s2.22-20.659,1.366-27.318Z" fill="#322f2f"/><path d="M224.256,247.132c0,0,6.831-3.585,10.246-6.829c0,0-3.245,4.78-7.343,7c0,0-1.537,16.732-1.537,16.391l-.854-16.391-.512-.171Z" fill="#1d1b1b"/><path d="M234.502,178.154c-2.391.171-4.099.683-4.269,0-.171-.512-.513-3.586-.513-3.586.342-.683.513-1.366.513-1.366c2.903-1.707,4.952-4.78,5.293-8.536.683-6.318-3.927-11.781-10.075-12.464-5.806-.683-10.245,3.585-11.441,9.22-.683,2.731-1.195,8.366.171,13.317.683,2.732,1.366,3.415,2.561,3.756.342.171,3.074.342,3.928.342c0,0,.341,1.707.512,2.902.171,1.196.171,1.708-2.049,3.074s3.415,4.097,7.001,3.927c3.586-.342,7.685-2.391,8.88-4.781c1.195-2.732,1.024-5.976-.512-5.805Z" fill="#b4b4c0"/><path d="M234.502,178.154c-2.391.171-4.099.683-4.269,0-.171-.512-.513-3.585-.513-3.585.342-.683.513-1.366.513-1.366c1.024-.683,1.878-1.366,2.732-2.391l-7.684,2.562-2.22-.513-.854-.512-.512-1.024c0,.17-.342,3.585-1.025,4.61-.683,1.195-2.732,2.39-3.757,2.561c0,0,0,0,.171,0c.342.17,3.074.341,3.928.341c0,0,.341,1.708.512,2.903.171,1.024.171,1.536-1.537,2.732l3.074,2.39l9.392-.171c.17-.171.512-.341.683-.512l2.732-4.269c.171-2.048-.171-3.756-1.366-3.756Z" fill="#b4b4c0"/><path d="M231.428,173.544c2.903-2.561,3.757-5.122,4.098-8.878.683-6.317-3.927-11.781-10.075-12.464-4.098-.341-7.342,1.366-9.391,4.439c0,0,.341.854,1.024,1.537c0,0-.512,1.366.342,2.561.683.683.683,1.537.683,2.732c0,1.024-.171,2.902,0,4.098.17,1.707,2.049,2.049,2.049,2.049s.171-3.757.341-4.098c.683-1.366,3.074-1.708,3.928.171.683,1.536.341,3.073-.171,4.609-.512,1.537-2.049,1.537-2.732,1.025c0,.683-.342,3.244,2.22,4.098c2.39.683,4.781,0,5.976-.683.684-.342,1.708-1.196,1.708-1.196Z" fill="#474343"/><path d="M217.084,158.178c0,0-2.903.341-5.635-2.732s-1.196-5.976,2.049-4.61c3.244,1.366,8.709.512,11.441.342c2.732-.342,10.075,1.195,9.221,7.171l-17.076-.171Z" fill="#474343"/><path d="M231.257,178.496c.683,1.536-1.024,3.585-5.293,4.951s-4.782-.341-4.782-.341-6.318,2.902-8.538,4.439c-2.561,1.878-3.757,7.171-4.098,16.049-.342,10.244-1.195,30.733-.854,33.294c0,0,2.903,1.707,5.635-2.22c1.537,2.561,4.44,4.781,8.197,5.805c6.147,1.878,14.685-.512,18.784-8.537c0-9.049-2.562-16.561-1.196-21.854c3.415-11.952,5.123-16.732,3.415-24.757-1.366-6.488-3.244-7.342-5.805-7.342-2.391,0-5.465.513-5.465.513Z" fill="#f5fbfb"/><path d="M229.891,176.618c0,0,.342-.171.854,0c.512.341,1.707,1.537,1.707,1.537s.342,2.561-2.732,4.439c-3.073,1.878-6.83,2.902-10.587,1.024c0,0,.683-2.39,1.025-2.902.17-.513.683-.513.683-.513s1.024,1.196,4.61,0c3.757-1.195,4.44-3.073,4.44-3.073v-.512Z" fill="#e4f2f2"/><path d="M198.642,213.667c5.123,1.366,6.318-1.878,7.001-4.61c1.708-6.488,2.561-12.293,3.757-16.049c1.366-4.268,2.903-4.951,5.123-5.805c2.39-1.024,4.61,1.024,3.756,6.659-1.024,6.488-2.219,11.098-4.61,18.781-.683,2.049-2.049,5.634-4.269,7.342-2.562,2.219-6.66,2.048-12.636.512-2.562-.683-5.465-2.22-10.246-4.439-1.366-.683-2.391-1.025-4.781-2.22-2.562-1.195-5.123-3.073-6.489-4.951s-1.537-2.732-1.196-3.244c.342-.513.854-.342,1.708.341.683.854,1.707,2.22,3.757,3.415c0,0-1.537-1.707-2.562-2.732-.854-1.024-1.537-2.219-1.878-3.244-.512-1.024.512-2.561,1.195-1.878.683.854,1.025,1.537,2.391,3.244c1.195,1.366,2.39,2.22,2.39,2.22s-1.366-1.879-2.219-3.586c-.854-1.707-.854-2.561-.854-3.244c0-.512.854-1.195,1.537-.171.683,1.025,1.195,2.561,2.732,4.269c1.195,1.195,2.22,1.878,2.22,1.536c0-.341-.683-1.024-1.196-2.39-.341-1.366,0-2.902.854-3.073s.683-.171,1.196,1.195c.683,1.366,1.536,2.22,2.39,4.268.683,1.708,1.025,2.391,2.049,3.586c1.366,1.537,4.099,2.902,8.88,4.268Z" fill="#b4b4c0"/><path d="M195.397,212.472l-2.903-1.366c-1.707.683-3.073,3.586-2.561,6.659l3.415,1.366l2.049-6.659Z" fill="#f5fbfb"/><path d="M214.864,186.008c-3.415.342-4.781,1.366-6.489,8.708-1.537,7.342-2.561,14.513-3.927,16.049-1.196,1.537-1.879,3.927-9.563,1.025c0,0-3.586,1.366-3.244,7.342c0,0,4.098,1.536,8.708,2.561c4.611.853,8.88.512,11.783-5.293c2.732-5.805,5.806-17.245,6.318-21.855.683-4.61-.512-8.878-3.586-8.537Z" fill="#e4f2f2"/></g><g id="eKJMVGHQRxL146" transform="matrix(0 0 0 0 111.785385 204.015465)"><path d="M131.306,156.13c-.299-.242-.649-.414-1.024-.504-.375-.089-.765-.093-1.141-.012-2.756.578-5.6.585-8.358.022s-5.372-1.685-7.68-3.296c-.432-.3-.945-.46-1.47-.46s-1.038.16-1.47.46c-2.308,1.611-4.922,2.733-7.68,3.296s-5.6023.556-8.3575-.022c-.3766-.081-.7666-.077-1.1414.012-.3749.09-.7249.262-1.0245.504-.2991.243-.5401.549-.7052.897s-.2501.729-.2488,1.114v19.209c-.0023,3.697.8787,7.341,2.5695,10.629c1.6908,3.287,4.1426,6.123,7.1509,8.271l9.412,6.704c.436.311.959.478,1.495.478s1.059-.167,1.495-.478l9.412-6.704c3.008-2.148,5.46-4.984,7.151-8.271c1.691-3.288,2.572-6.932,2.569-10.629v-19.209c.002-.385-.083-.766-.248-1.114s-.406-.654-.706-.897Zm-4.202,21.22c.002,2.875-.683,5.708-1.997,8.264-1.314,2.557-3.22,4.762-5.558,6.433l-7.916,5.647-7.916-5.647c-2.338-1.671-4.2439-3.876-5.5579-6.433-1.3141-2.556-1.9986-5.389-1.9966-8.264v-16.244c5.4055.463,10.8195-.791,15.4705-3.584c4.651,2.793,10.065,4.047,15.471,3.584v16.244Zm-11.5-5.904l-6.936,6.962-2.295-2.321c-.485-.485-1.144-.758-1.831-.758-.686,0-1.345.273-1.83.758-.486.486-.759,1.144-.759,1.831c0,.686.273,1.345.759,1.83l4.125,4.126c.24.242.525.433.839.564s.651.199.992.199c.34,0,.677-.068.991-.199.315-.131.6-.322.84-.564l8.869-8.793c.486-.485.759-1.144.759-1.83c0-.687-.273-1.345-.759-1.831-.485-.485-1.144-.758-1.83-.758-.687,0-1.346.273-1.831.758l-.103.026Z" fill="url(#eKJMVGHQRxL147-fill)"/><g transform="translate(0 24.222635)" opacity="0.3" filter="url(#eKJMVGHQRxL148-filter)"><path d="M130.674,143.134c-10.463-5.979-27.314-5.979-37.7773,0-10.6169,6.067-10.6169,15.97,0,22.036c10.4633,5.979,27.3143,5.979,37.7773,0c10.617-6.066,10.617-15.969,0-22.036Z" fill="url(#eKJMVGHQRxL149-fill)"/></g></g><script><![CDATA[!function(t,n){"object"==typeof exports&&"undefined"!=typeof module?module.exports=n():"function"==typeof define&&define.amd?define(n):((t="undefined"!=typeof globalThis?globalThis:t||self).__SVGATOR_PLAYER__=t.__SVGATOR_PLAYER__||{},t.__SVGATOR_PLAYER__["5c7f360c"]=n())}(this,(function(){"use strict";function t(t,n){var r=Object.keys(t);if(Object.getOwnPropertySymbols){var e=Object.getOwnPropertySymbols(t);n&&(e=e.filter((function(n){return Object.getOwnPropertyDescriptor(t,n).enumerable}))),r.push.apply(r,e)}return r}function n(n){for(var r=1;r<arguments.length;r++){var e=null!=arguments[r]?arguments[r]:{};r%2?t(Object(e),!0).forEach((function(t){u(n,t,e[t])})):Object.getOwnPropertyDescriptors?Object.defineProperties(n,Object.getOwnPropertyDescriptors(e)):t(Object(e)).forEach((function(t){Object.defineProperty(n,t,Object.getOwnPropertyDescriptor(e,t))}))}return n}function r(t){return(r="function"==typeof Symbol&&"symbol"==typeof Symbol.iterator?function(t){return typeof t}:function(t){return t&&"function"==typeof Symbol&&t.constructor===Symbol&&t!==Symbol.prototype?"symbol":typeof t})(t)}function e(t,n){if(!(t instanceof n))throw new TypeError("Cannot call a class as a function")}function i(t,n){for(var r=0;r<n.length;r++){var e=n[r];e.enumerable=e.enumerable||!1,e.configurable=!0,"value"in e&&(e.writable=!0),Object.defineProperty(t,e.key,e)}}function o(t,n,r){return n&&i(t.prototype,n),r&&i(t,r),t}function u(t,n,r){return n in t?Object.defineProperty(t,n,{value:r,enumerable:!0,configurable:!0,writable:!0}):t[n]=r,t}function a(t){return(a=Object.setPrototypeOf?Object.getPrototypeOf:function(t){return t.__proto__||Object.getPrototypeOf(t)})(t)}function l(t,n){return(l=Object.setPrototypeOf||function(t,n){return t.__proto__=n,t})(t,n)}function f(){if("undefined"==typeof Reflect||!Reflect.construct)return!1;if(Reflect.construct.sham)return!1;if("function"==typeof Proxy)return!0;try{return Boolean.prototype.valueOf.call(Reflect.construct(Boolean,[],(function(){}))),!0}catch(t){return!1}}function s(t,n,r){return(s=f()?Reflect.construct:function(t,n,r){var e=[null];e.push.apply(e,n);var i=new(Function.bind.apply(t,e));return r&&l(i,r.prototype),i}).apply(null,arguments)}function c(t,n){if(n&&("object"==typeof n||"function"==typeof n))return n;if(void 0!==n)throw new TypeError("Derived constructors may only return object or undefined");return function(t){if(void 0===t)throw new ReferenceError("this hasn't been initialised - super() hasn't been called");return t}(t)}function h(t,n,r){return(h="undefined"!=typeof Reflect&&Reflect.get?Reflect.get:function(t,n,r){var e=function(t,n){for(;!Object.prototype.hasOwnProperty.call(t,n)&&null!==(t=a(t)););return t}(t,n);if(e){var i=Object.getOwnPropertyDescriptor(e,n);return i.get?i.get.call(r):i.value}})(t,n,r||t)}function v(t){return function(t){if(Array.isArray(t))return y(t)}(t)||function(t){if("undefined"!=typeof Symbol&&null!=t[Symbol.iterator]||null!=t["@@iterator"])return Array.from(t)}(t)||function(t,n){if(!t)return;if("string"==typeof t)return y(t,n);var r=Object.prototype.toString.call(t).slice(8,-1);"Object"===r&&t.constructor&&(r=t.constructor.name);if("Map"===r||"Set"===r)return Array.from(t);if("Arguments"===r||/^(?:Ui|I)nt(?:8|16|32)(?:Clamped)?Array$/.test(r))return y(t,n)}(t)||function(){throw new TypeError("Invalid attempt to spread non-iterable instance.\nIn order to be iterable, non-array objects must have a [Symbol.iterator]() method.")}()}function y(t,n){(null==n||n>t.length)&&(n=t.length);for(var r=0,e=new Array(n);r<n;r++)e[r]=t[r];return e}var g=d(Math.pow(10,-6));function d(t){var n=arguments.length>1&&void 0!==arguments[1]?arguments[1]:6;if(Number.isInteger(t))return t;var r=Math.pow(10,n);return Math.round((+t+Number.EPSILON)*r)/r}function p(t,n){var r=arguments.length>2&&void 0!==arguments[2]?arguments[2]:g;return Math.abs(t-n)<r}var m=Math.PI/180;function b(t){return t}function w(t,n,r){var e=1-r;return 3*r*e*(t*e+n*r)+r*r*r}function A(){var t=arguments.length>0&&void 0!==arguments[0]?arguments[0]:0,n=arguments.length>1&&void 0!==arguments[1]?arguments[1]:0,r=arguments.length>2&&void 0!==arguments[2]?arguments[2]:1,e=arguments.length>3&&void 0!==arguments[3]?arguments[3]:1;return t<0||t>1||r<0||r>1?null:p(t,n)&&p(r,e)?b:function(i){if(i<=0)return t>0?i*n/t:0===n&&r>0?i*e/r:0;if(i>=1)return r<1?1+(i-1)*(e-1)/(r-1):1===r&&t<1?1+(i-1)*(n-1)/(t-1):1;for(var o,u=0,a=1;u<a;){var l=w(t,r,o=(u+a)/2);if(p(i,l))break;l<i?u=o:a=o}return w(n,e,o)}}function x(){return 1}function k(t){return 1===t?1:0}function S(){var t=arguments.length>0&&void 0!==arguments[0]?arguments[0]:1,n=arguments.length>1&&void 0!==arguments[1]?arguments[1]:0;if(1===t){if(0===n)return k;if(1===n)return x}var r=1/t;return function(t){return t>=1?1:(t+=n*r)-t%r}}var _=Math.sin,O=Math.cos,j=Math.acos,M=Math.asin,P=Math.tan,E=Math.atan2,I=Math.PI/180,R=180/Math.PI,F=Math.sqrt,N=function(){function t(){var n=arguments.length>0&&void 0!==arguments[0]?arguments[0]:1,r=arguments.length>1&&void 0!==arguments[1]?arguments[1]:0,i=arguments.length>2&&void 0!==arguments[2]?arguments[2]:0,o=arguments.length>3&&void 0!==arguments[3]?arguments[3]:1,u=arguments.length>4&&void 0!==arguments[4]?arguments[4]:0,a=arguments.length>5&&void 0!==arguments[5]?arguments[5]:0;e(this,t),this.m=[n,r,i,o,u,a],this.i=null,this.w=null,this.s=null}return o(t,[{key:"determinant",get:function(){var t=this.m;return t[0]*t[3]-t[1]*t[2]}},{key:"isIdentity",get:function(){if(null===this.i){var t=this.m;this.i=1===t[0]&&0===t[1]&&0===t[2]&&1===t[3]&&0===t[4]&&0===t[5]}return this.i}},{key:"point",value:function(t,n){var r=this.m;return{x:r[0]*t+r[2]*n+r[4],y:r[1]*t+r[3]*n+r[5]}}},{key:"translateSelf",value:function(){var t=arguments.length>0&&void 0!==arguments[0]?arguments[0]:0,n=arguments.length>1&&void 0!==arguments[1]?arguments[1]:0;if(!t&&!n)return this;var r=this.m;return r[4]+=r[0]*t+r[2]*n,r[5]+=r[1]*t+r[3]*n,this.w=this.s=this.i=null,this}},{key:"rotateSelf",value:function(){var t=arguments.length>0&&void 0!==arguments[0]?arguments[0]:0;if(t%=360){var n=_(t*=I),r=O(t),e=this.m,i=e[0],o=e[1];e[0]=i*r+e[2]*n,e[1]=o*r+e[3]*n,e[2]=e[2]*r-i*n,e[3]=e[3]*r-o*n,this.w=this.s=this.i=null}return this}},{key:"scaleSelf",value:function(){var t=arguments.length>0&&void 0!==arguments[0]?arguments[0]:1,n=arguments.length>1&&void 0!==arguments[1]?arguments[1]:1;if(1!==t||1!==n){var r=this.m;r[0]*=t,r[1]*=t,r[2]*=n,r[3]*=n,this.w=this.s=this.i=null}return this}},{key:"skewSelf",value:function(t,n){if(n%=360,(t%=360)||n){var r=this.m,e=r[0],i=r[1],o=r[2],u=r[3];t&&(t=P(t*I),r[2]+=e*t,r[3]+=i*t),n&&(n=P(n*I),r[0]+=o*n,r[1]+=u*n),this.w=this.s=this.i=null}return this}},{key:"resetSelf",value:function(){var t=arguments.length>0&&void 0!==arguments[0]?arguments[0]:1,n=arguments.length>1&&void 0!==arguments[1]?arguments[1]:0,r=arguments.length>2&&void 0!==arguments[2]?arguments[2]:0,e=arguments.length>3&&void 0!==arguments[3]?arguments[3]:1,i=arguments.length>4&&void 0!==arguments[4]?arguments[4]:0,o=arguments.length>5&&void 0!==arguments[5]?arguments[5]:0,u=this.m;return u[0]=t,u[1]=n,u[2]=r,u[3]=e,u[4]=i,u[5]=o,this.w=this.s=this.i=null,this}},{key:"recomposeSelf",value:function(){var t=arguments.length>0&&void 0!==arguments[0]?arguments[0]:null,n=arguments.length>1&&void 0!==arguments[1]?arguments[1]:null,r=arguments.length>2&&void 0!==arguments[2]?arguments[2]:null,e=arguments.length>3&&void 0!==arguments[3]?arguments[3]:null,i=arguments.length>4&&void 0!==arguments[4]?arguments[4]:null;return this.isIdentity||this.resetSelf(),t&&(t.x||t.y)&&this.translateSelf(t.x,t.y),n&&this.rotateSelf(n),r&&(r.x&&this.skewSelf(r.x,0),r.y&&this.skewSelf(0,r.y)),!e||1===e.x&&1===e.y||this.scaleSelf(e.x,e.y),i&&(i.x||i.y)&&this.translateSelf(i.x,i.y),this}},{key:"decompose",value:function(){var t=arguments.length>0&&void 0!==arguments[0]?arguments[0]:0,n=arguments.length>1&&void 0!==arguments[1]?arguments[1]:0,r=this.m,e=r[0]*r[0]+r[1]*r[1],i=[[r[0],r[1]],[r[2],r[3]]],o=F(e);if(0===o)return{origin:{x:d(r[4]),y:d(r[5])},translate:{x:d(t),y:d(n)},scale:{x:0,y:0},skew:{x:0,y:0},rotate:0};i[0][0]/=o,i[0][1]/=o;var u=r[0]*r[3]-r[1]*r[2]<0;u&&(o=-o);var a=i[0][0]*i[1][0]+i[0][1]*i[1][1];i[1][0]-=i[0][0]*a,i[1][1]-=i[0][1]*a;var l=F(i[1][0]*i[1][0]+i[1][1]*i[1][1]);if(0===l)return{origin:{x:d(r[4]),y:d(r[5])},translate:{x:d(t),y:d(n)},scale:{x:d(o),y:0},skew:{x:0,y:0},rotate:0};i[1][0]/=l,i[1][1]/=l,a/=l;var f=0;return i[1][1]<0?(f=j(i[1][1])*R,i[0][1]<0&&(f=360-f)):f=M(i[0][1])*R,u&&(f=-f),a=E(a,F(i[0][0]*i[0][0]+i[0][1]*i[0][1]))*R,u&&(a=-a),{origin:{x:d(r[4]),y:d(r[5])},translate:{x:d(t),y:d(n)},scale:{x:d(o),y:d(l)},skew:{x:d(a),y:0},rotate:d(f)}}},{key:"clone",value:function(){var t=this.m;return new this.constructor(t[0],t[1],t[2],t[3],t[4],t[5])}},{key:"toString",value:function(){var t=arguments.length>0&&void 0!==arguments[0]?arguments[0]:" ";if(null===this.s){var n=this.m.map((function(t){return d(t)}));1===n[0]&&0===n[1]&&0===n[2]&&1===n[3]?this.s="translate("+n[4]+t+n[5]+")":this.s="matrix("+n.join(t)+")"}return this.s}}],[{key:"create",value:function(t){return t?Array.isArray(t)?s(this,v(t)):t instanceof this?t.clone():(new this).recomposeSelf(t.origin,t.rotate,t.skew,t.scale,t.translate):new this}}]),t}();function T(t,n,r){return t>=.5?r:n}function B(t,n,r){return 0===t||n===r?n:t*(r-n)+n}function q(t,n,r){var e=B(t,n,r);return e<=0?0:e}function L(t,n,r){var e=B(t,n,r);return e<=0?0:e>=1?1:e}function C(t,n,r){return 0===t?n:1===t?r:{x:B(t,n.x,r.x),y:B(t,n.y,r.y)}}function D(t,n,r){var e=function(t,n,r){return Math.round(B(t,n,r))}(t,n,r);return e<=0?0:e>=255?255:e}function z(t,n,r){return 0===t?n:1===t?r:{r:D(t,n.r,r.r),g:D(t,n.g,r.g),b:D(t,n.b,r.b),a:B(t,null==n.a?1:n.a,null==r.a?1:r.a)}}function V(t,n){for(var r=[],e=0;e<t;e++)r.push(n);return r}function G(t,n){if(--n<=0)return t;var r=(t=Object.assign([],t)).length;do{for(var e=0;e<r;e++)t.push(t[e])}while(--n>0);return t}var Y,$=function(){function t(n){e(this,t),this.list=n,this.length=n.length}return o(t,[{key:"setAttribute",value:function(t,n){for(var r=this.list,e=0;e<this.length;e++)r[e].setAttribute(t,n)}},{key:"removeAttribute",value:function(t){for(var n=this.list,r=0;r<this.length;r++)n[r].removeAttribute(t)}},{key:"style",value:function(t,n){for(var r=this.list,e=0;e<this.length;e++)r[e].style[t]=n}}]),t}(),U=/-./g,Q=function(t,n){return n.toUpperCase()};function H(t){return"function"==typeof t?t:T}function J(t){return t?"function"==typeof t?t:Array.isArray(t)?function(t){var n=arguments.length>1&&void 0!==arguments[1]?arguments[1]:b;if(!Array.isArray(t))return n;switch(t.length){case 1:return S(t[0])||n;case 2:return S(t[0],t[1])||n;case 4:return A(t[0],t[1],t[2],t[3])||n}return n}(t,null):function(t,n){var r=arguments.length>2&&void 0!==arguments[2]?arguments[2]:b;switch(t){case"linear":return b;case"steps":return S(n.steps||1,n.jump||0)||r;case"bezier":case"cubic-bezier":return A(n.x1||0,n.y1||0,n.x2||0,n.y2||0)||r}return r}(t.type,t.value,null):null}function Z(t,n,r){var e=arguments.length>3&&void 0!==arguments[3]&&arguments[3],i=n.length-1;if(t<=n[0].t)return e?[0,0,n[0].v]:n[0].v;if(t>=n[i].t)return e?[i,1,n[i].v]:n[i].v;var o,u=n[0],a=null;for(o=1;o<=i;o++){if(!(t>n[o].t)){a=n[o];break}u=n[o]}return null==a?e?[i,1,n[i].v]:n[i].v:u.t===a.t?e?[o,1,a.v]:a.v:(t=(t-u.t)/(a.t-u.t),u.e&&(t=u.e(t)),e?[o,t,r(t,u.v,a.v)]:r(t,u.v,a.v))}function K(t,n){var r=arguments.length>2&&void 0!==arguments[2]?arguments[2]:null;return t&&t.length?"function"!=typeof n?null:("function"!=typeof r&&(r=null),function(e){var i=Z(e,t,n);return null!=i&&r&&(i=r(i)),i}):null}function W(t,n){return t.t-n.t}function X(t,n,e,i,o){var u,a="@"===e[0],l="#"===e[0],f=Y[e],s=T;switch(a?(u=e.substr(1),e=u.replace(U,Q)):l&&(e=e.substr(1)),r(f)){case"function":if(s=f(i,o,Z,J,e,a,n,t),l)return s;break;case"string":s=K(i,H(f));break;case"object":if((s=K(i,H(f.i),f.f))&&"function"==typeof f.u)return f.u(n,s,e,a,t)}return s?function(t,n,r){if(arguments.length>3&&void 0!==arguments[3]&&arguments[3])return t instanceof $?function(e){return t.style(n,r(e))}:function(e){return t.style[n]=r(e)};if(Array.isArray(n)){var e=n.length;return function(i){var o=r(i);if(null==o)for(var u=0;u<e;u++)t[u].removeAttribute(n);else for(var a=0;a<e;a++)t[a].setAttribute(n,o)}}return function(e){var i=r(e);null==i?t.removeAttribute(n):t.setAttribute(n,i)}}(n,e,s,a):null}function tt(t,n,e,i){if(!i||"object"!==r(i))return null;var o=null,u=null;return Array.isArray(i)?u=function(t){if(!t||!t.length)return null;for(var n=0;n<t.length;n++)t[n].e&&(t[n].e=J(t[n].e));return t.sort(W)}(i):(u=i.keys,o=i.data||null),u?X(t,n,e,u,o):null}function nt(t,n,r){if(!r)return null;var e=[];for(var i in r)if(r.hasOwnProperty(i)){var o=tt(t,n,i,r[i]);o&&e.push(o)}return e.length?e:null}function rt(t,n){if(!n.duration||n.duration<0)return null;var r=function(t,n){if(!n)return null;var r=[];if(Array.isArray(n))for(var e=n.length,i=0;i<e;i++){var o=n[i];if(2===o.length){var u=null;if("string"==typeof o[0])u=t.getElementById(o[0]);else if(Array.isArray(o[0])){u=[];for(var a=0;a<o[0].length;a++)if("string"==typeof o[0][a]){var l=t.getElementById(o[0][a]);l&&u.push(l)}u=u.length?1===u.length?u[0]:new $(u):null}if(u){var f=nt(t,u,o[1]);f&&(r=r.concat(f))}}}else for(var s in n)if(n.hasOwnProperty(s)){var c=t.getElementById(s);if(c){var h=nt(t,c,n[s]);h&&(r=r.concat(h))}}return r.length?r:null}(t,n.elements);return r?function(t,n){var r=arguments.length>2&&void 0!==arguments[2]?arguments[2]:1/0,e=arguments.length>3&&void 0!==arguments[3]?arguments[3]:1,i=arguments.length>4&&void 0!==arguments[4]&&arguments[4],o=arguments.length>5&&void 0!==arguments[5]?arguments[5]:1,u=t.length,a=e>0?n:0;i&&r%2==0&&(a=n-a);var l=null;return function(f,s){var c=f%n,h=1+(f-c)/n;s*=e,i&&h%2==0&&(s=-s);var v=!1;if(h>r)c=a,v=!0,-1===o&&(c=e>0?0:n);else if(s<0&&(c=n-c),c===l)return!1;l=c;for(var y=0;y<u;y++)t[y](c);return v}}(r,n.duration,n.iterations||1/0,n.direction||1,!!n.alternate,n.fill||1):null}function et(t){return+("0x"+(t.replace(/[^0-9a-fA-F]+/g,"")||27))}function it(t,n,r){return!t||!r||n>t.length?t:t.substring(0,n)+it(t.substring(n+1),r,r)}function ot(t){var n=arguments.length>1&&void 0!==arguments[1]?arguments[1]:27;return!t||t%n?t%n:ot(t/n,n)}function ut(t,n,r){if(t&&t.length){var e=et(r),i=et(n),o=ot(e)+5,u=it(t,ot(e,5),o);return u=u.replace(/\x7c$/g,"==").replace(/\x2f$/g,"="),u=function(t,n,r){var e=+("0x"+t.substring(0,4));t=t.substring(4);for(var i=n%e+r%27,o=[],u=0;u<t.length;u+=2)if("|"!==t[u]){var a=+("0x"+t[u]+t[u+1])-i;o.push(a)}else{var l=+("0x"+t.substring(u+1,u+1+4))-i;u+=3,o.push(l)}return String.fromCharCode.apply(String,o)}(u=(u=atob(u)).replace(/[\x41-\x5A]/g,""),i,e),u=JSON.parse(u)}}Number.isInteger||(Number.isInteger=function(t){return"number"==typeof t&&isFinite(t)&&Math.floor(t)===t}),Number.EPSILON||(Number.EPSILON=2220446049250313e-31);var at=function(){function t(n,r){var i=arguments.length>2&&void 0!==arguments[2]?arguments[2]:{};e(this,t),this._id=0,this._running=!1,this._rollingBack=!1,this._animations=n,this.duration=r.duration,this.alternate=r.alternate,this.fill=r.fill,this.iterations=r.iterations,this.direction=i.direction||1,this.speed=i.speed||1,this.fps=i.fps||100,this.offset=i.offset||0,this.rollbackStartOffset=0}return o(t,[{key:"_rollback",value:function(){var t=this,n=1/0,r=null;this.rollbackStartOffset=this.offset,this._rollingBack||(this._rollingBack=!0,this._running=!0);this._id=window.requestAnimationFrame((function e(i){if(t._rollingBack){null==r&&(r=i);var o=i-r,u=t.rollbackStartOffset-o,a=Math.round(u*t.speed);if(a>t.duration&&n!=1/0){var l=!!t.alternate&&a/t.duration%2>1,f=a%t.duration;a=(f+=l?t.duration:0)||t.duration}var s=t.fps?1e3/t.fps:0,c=Math.max(0,a);if(c<n-s){t.offset=c,n=c;for(var h=t._animations,v=h.length,y=0;y<v;y++)h[y](c,t.direction)}var g=!1;if(t.iterations>0&&-1===t.fill){var d=t.iterations*t.duration,p=d==a;a=p?0:a,t.offset=p?0:t.offset,g=a>d}a>0&&t.offset>=a&&!g?t._id=window.requestAnimationFrame(e):t.stop()}}))}},{key:"_start",value:function(){var t=this,n=arguments.length>0&&void 0!==arguments[0]?arguments[0]:0,r=-1/0,e=null,i={},o=function o(u){t._running=!0,null==e&&(e=u);var a=Math.round((u-e+n)*t.speed),l=t.fps?1e3/t.fps:0;if(a>r+l&&!t._rollingBack){t.offset=a,r=a;for(var f=t._animations,s=f.length,c=0,h=0;h<s;h++)i[h]?c++:(i[h]=f[h](a,t.direction),i[h]&&c++);if(c===s)return void t._stop()}t._id=window.requestAnimationFrame(o)};this._id=window.requestAnimationFrame(o)}},{key:"_stop",value:function(){this._id&&window.cancelAnimationFrame(this._id),this._running=!1,this._rollingBack=!1}},{key:"play",value:function(){!this._rollingBack&&this._running||(this._rollingBack=!1,this.rollbackStartOffset>this.duration&&(this.offset=this.rollbackStartOffset-(this.rollbackStartOffset-this.offset)%this.duration,this.rollbackStartOffset=0),this._start(this.offset))}},{key:"stop",value:function(){this._stop(),this.offset=0,this.rollbackStartOffset=0;var t=this.direction,n=this._animations;window.requestAnimationFrame((function(){for(var r=0;r<n.length;r++)n[r](0,t)}))}},{key:"reachedToEnd",value:function(){return this.iterations>0&&this.offset>=this.iterations*this.duration}},{key:"restart",value:function(){this._stop(),this.offset=0,this._start()}},{key:"pause",value:function(){this._stop()}},{key:"reverse",value:function(){this.direction=-this.direction}}],[{key:"build",value:function(r,e){return delete r.animationSettings,r.options=ut(r.options,r.root,"5c7f360c"),r.animations.map((function(t){var e=ut(t.s,r.root,"5c7f360c");for(var i in delete t.s,r.animationSettings||(r.animationSettings=n({},e)),e)e.hasOwnProperty(i)&&(t[i]=e[i])})),(r=function(t,n){if(Y=n,!t||!t.root||!Array.isArray(t.animations))return null;for(var r=document.getElementsByTagName("svg"),e=!1,i=0;i<r.length;i++)if(r[i].id===t.root&&!r[i].svgatorAnimation){(e=r[i]).svgatorAnimation=!0;break}if(!e)return null;var o=t.animations.map((function(t){return rt(e,t)})).filter((function(t){return!!t}));return o.length?{element:e,animations:o,animationSettings:t.animationSettings,options:t.options||void 0}:null}(r,e))?{el:r.element,options:r.options||{},player:new t(r.animations,r.animationSettings,r.options)}:null}},{key:"push",value:function(t){return this.build(t)}},{key:"init",value:function(){var t=this,n=window.__SVGATOR_PLAYER__&&window.__SVGATOR_PLAYER__["5c7f360c"];Array.isArray(n)&&n.splice(0).forEach((function(n){return t.build(n)}))}}]),t}();function lt(t){return d(t)+""}function ft(t){var n=arguments.length>1&&void 0!==arguments[1]?arguments[1]:" ";return t&&t.length?t.map(lt).join(n):""}function st(t){if(!t)return"transparent";if(null==t.a||t.a>=1){var n=function(t){return 1===(t=parseInt(t).toString(16)).length?"0"+t:t},r=function(t){return t.charAt(0)===t.charAt(1)},e=n(t.r),i=n(t.g),o=n(t.b);return r(e)&&r(i)&&r(o)&&(e=e.charAt(0),i=i.charAt(0),o=o.charAt(0)),"#"+e+i+o}return"rgba("+t.r+","+t.g+","+t.b+","+t.a+")"}function ct(t){return t?"url(#"+t+")":"none"}!function(){for(var t=0,n=["ms","moz","webkit","o"],r=0;r<n.length&&!window.requestAnimationFrame;++r)window.requestAnimationFrame=window[n[r]+"RequestAnimationFrame"],window.cancelAnimationFrame=window[n[r]+"CancelAnimationFrame"]||window[n[r]+"CancelRequestAnimationFrame"];window.requestAnimationFrame||(window.requestAnimationFrame=function(n){var r=Date.now(),e=Math.max(0,16-(r-t)),i=window.setTimeout((function(){n(r+e)}),e);return t=r+e,i},window.cancelAnimationFrame=window.clearTimeout)}();var ht={f:null,i:function(t,n,r){return 0===t?n:1===t?r:{x:q(t,n.x,r.x),y:q(t,n.y,r.y)}},u:function(t,n){return function(r){var e=n(r);t.setAttribute("rx",lt(e.x)),t.setAttribute("ry",lt(e.y))}}},vt={f:null,i:function(t,n,r){return 0===t?n:1===t?r:{width:q(t,n.width,r.width),height:q(t,n.height,r.height)}},u:function(t,n){return function(r){var e=n(r);t.setAttribute("width",lt(e.width)),t.setAttribute("height",lt(e.height))}}};Object.freeze({M:2,L:2,Z:0,H:1,V:1,C:6,Q:4,T:2,S:4,A:7});var yt={},gt=null;function dt(t){var n=function(){if(gt)return gt;if("object"!==("undefined"==typeof document?"undefined":r(document))||!document.createElementNS)return{};var t=document.createElementNS("http://www.w3.org/2000/svg","svg");return t&&t.style?(t.style.position="absolute",t.style.opacity="0.01",t.style.zIndex="-9999",t.style.left="-9999px",t.style.width="1px",t.style.height="1px",gt={svg:t}):{}}().svg;if(!n)return function(t){return null};var e=document.createElementNS(n.namespaceURI,"path");e.setAttributeNS(null,"d",t),e.setAttributeNS(null,"fill","none"),e.setAttributeNS(null,"stroke","none"),n.appendChild(e);var i=e.getTotalLength();return function(t){var n=e.getPointAtLength(i*t);return{x:n.x,y:n.y}}}function pt(t){return yt[t]?yt[t]:yt[t]=dt(t)}function mt(t,n,r,e){if(!t||!e)return!1;var i=["M",t.x,t.y];if(n&&r&&(i.push("C"),i.push(n.x),i.push(n.y),i.push(r.x),i.push(r.y)),n?!r:r){var o=n||r;i.push("Q"),i.push(o.x),i.push(o.y)}return n||r||i.push("L"),i.push(e.x),i.push(e.y),i.join(" ")}function bt(t,n,r,e){var i=arguments.length>4&&void 0!==arguments[4]?arguments[4]:1,o=mt(t,n,r,e),u=pt(o);try{return u(i)}catch(t){return null}}function wt(t,n,r,e){var i=1-e;return i*i*t+2*i*e*n+e*e*r}function At(t,n,r,e){return 2*(1-e)*(n-t)+2*e*(r-n)}function xt(t,n,r,e){var i=arguments.length>4&&void 0!==arguments[4]&&arguments[4],o=bt(t,n,null,r,e);return o||(o={x:wt(t.x,n.x,r.x,e),y:wt(t.y,n.y,r.y,e)}),i&&(o.a=kt(t,n,r,e)),o}function kt(t,n,r,e){return Math.atan2(At(t.y,n.y,r.y,e),At(t.x,n.x,r.x,e))}function St(t,n,r,e,i){var o=i*i;return i*o*(e-t+3*(n-r))+3*o*(t+r-2*n)+3*i*(n-t)+t}function _t(t,n,r,e,i){var o=1-i;return 3*(o*o*(n-t)+2*o*i*(r-n)+i*i*(e-r))}function Ot(t,n,r,e,i){var o=arguments.length>5&&void 0!==arguments[5]&&arguments[5],u=bt(t,n,r,e,i);return u||(u={x:St(t.x,n.x,r.x,e.x,i),y:St(t.y,n.y,r.y,e.y,i)}),o&&(u.a=jt(t,n,r,e,i)),u}function jt(t,n,r,e,i){return Math.atan2(_t(t.y,n.y,r.y,e.y,i),_t(t.x,n.x,r.x,e.x,i))}function Mt(t,n,r){return t+(n-t)*r}function Pt(t,n,r){var e=arguments.length>3&&void 0!==arguments[3]&&arguments[3],i={x:Mt(t.x,n.x,r),y:Mt(t.y,n.y,r)};return e&&(i.a=Et(t,n)),i}function Et(t,n){return Math.atan2(n.y-t.y,n.x-t.x)}function It(t,n,r){var e=arguments.length>3&&void 0!==arguments[3]&&arguments[3];if(Ft(n)){if(Nt(r))return xt(n,r.start,r,t,e)}else if(Ft(r)){if(n.end)return xt(n,n.end,r,t,e)}else{if(n.end)return r.start?Ot(n,n.end,r.start,r,t,e):xt(n,n.end,r,t,e);if(r.start)return xt(n,r.start,r,t,e)}return Pt(n,r,t,e)}function Rt(t,n,r){var e=It(t,n,r,!0);return e.a=function(t){return arguments.length>1&&void 0!==arguments[1]&&arguments[1]?t+Math.PI:t}(e.a)/m,e}function Ft(t){return!t.type||"corner"===t.type}function Nt(t){return null!=t.start&&!Ft(t)}var Tt=new N;var Bt={f:lt,i:B},qt={f:lt,i:L};function Lt(t,n,r){return t.map((function(t){return function(t,n,r){var e=t.v;if(!e||"g"!==e.t||e.s||!e.v||!e.r)return t;var i=r.getElementById(e.r),o=i&&i.querySelectorAll("stop")||[];return e.s=e.v.map((function(t,n){var r=o[n]&&o[n].getAttribute("offset");return{c:t,o:r=d(parseInt(r)/100)}})),delete e.v,t}(t,0,r)}))}var Ct={gt:"gradientTransform",c:{x:"cx",y:"cy"},rd:"r",f:{x:"x1",y:"y1"},to:{x:"x2",y:"y2"}};function Dt(t,n,e,i,o,u,a,l){return Lt(t,0,l),n=function(t,n,r){for(var e,i,o,u=t.length-1,a={},l=0;l<=u;l++)(e=t[l]).e&&(e.e=n(e.e)),e.v&&"g"===(i=e.v).t&&i.r&&(o=r.getElementById(i.r))&&(a[i.r]={e:o,s:o.querySelectorAll("stop")});return a}(t,i,l),function(i){var o=e(i,t,zt);if(!o)return"none";if("c"===o.t)return st(o.v);if("g"===o.t){if(!n[o.r])return ct(o.r);var u=n[o.r];return function(t,n){for(var r=t.s,e=r.length;e<n.length;e++){var i=r[r.length-1].cloneNode();i.id=Yt(i.id),t.e.appendChild(i),r=t.s=t.e.querySelectorAll("stop")}for(var o=0,u=r.length,a=n.length-1;o<u;o++)r[o].setAttribute("stop-color",st(n[Math.min(o,a)].c)),r[o].setAttribute("offset",n[Math.min(o,a)].o)}(u,o.s),Object.keys(Ct).forEach((function(t){if(void 0!==o[t])if("object"!==r(Ct[t])){var n,e="gt"===t?(n=o[t],Array.isArray(n)?"matrix("+n.join(" ")+")":""):o[t],i=Ct[t];u.e.setAttribute(i,e)}else Object.keys(Ct[t]).forEach((function(n){if(void 0!==o[t][n]){var r=o[t][n],e=Ct[t][n];u.e.setAttribute(e,r)}}))})),ct(o.r)}return"none"}}function zt(t,r,e){if(0===t)return r;if(1===t)return e;if(r&&e){var i=r.t;if(i===e.t)switch(r.t){case"c":return{t:i,v:z(t,r.v,e.v)};case"g":if(r.r===e.r){var o={t:i,s:Vt(t,r.s,e.s),r:r.r};return r.gt&&e.gt&&(o.gt=function(t,n,r){var e=n.length;if(e!==r.length)return T(t,n,r);for(var i=new Array(e),o=0;o<e;o++)i[o]=B(t,n[o],r[o]);return i}(t,r.gt,e.gt)),r.c?(o.c=C(t,r.c,e.c),o.rd=q(t,r.rd,e.rd)):r.f&&(o.f=C(t,r.f,e.f),o.to=C(t,r.to,e.to)),o}}if("c"===r.t&&"g"===e.t||"c"===e.t&&"g"===r.t){var u="c"===r.t?r:e,a="g"===r.t?n({},r):n({},e),l=a.s.map((function(t){return{c:u.v,o:t.o}}));return a.s="c"===r.t?Vt(t,l,a.s):Vt(t,a.s,l),a}}return T(t,r,e)}function Vt(t,n,r){if(n.length===r.length)return n.map((function(n,e){return Gt(t,n,r[e])}));for(var e=Math.max(n.length,r.length),i=[],o=0;o<e;o++){var u=Gt(t,n[Math.min(o,n.length-1)],r[Math.min(o,r.length-1)]);i.push(u)}return i}function Gt(t,n,r){return{o:L(t,n.o,r.o||0),c:z(t,n.c,r.c||{})}}function Yt(t){return t.replace(/-fill-([0-9]+)$/,(function(t,n){return"-fill-"+(+n+1)}))}var $t={fill:Dt,"fill-opacity":qt,stroke:Dt,"stroke-opacity":qt,"stroke-width":Bt,"stroke-dashoffset":{f:lt,i:B},"stroke-dasharray":{f:function(t){var n=arguments.length>1&&void 0!==arguments[1]?arguments[1]:" ";return t&&t.length>0&&(t=t.map((function(t){return d(t,4)}))),ft(t,n)},i:function(t,n,r){var e,i,o,u=n.length,a=r.length;if(u!==a)if(0===u)n=V(u=a,0);else if(0===a)a=u,r=V(u,0);else{var l=(o=(e=u)*(i=a)/function(t,n){for(var r;n;)r=n,n=t%n,t=r;return t||1}(e,i))<0?-o:o;n=G(n,Math.floor(l/u)),r=G(r,Math.floor(l/a)),u=a=l}for(var f=[],s=0;s<u;s++)f.push(d(q(t,n[s],r[s])));return f}},opacity:qt,transform:function(t,n,e,i){if(!(t=function(t,n){if(!t||"object"!==r(t))return null;var e=!1;for(var i in t)t.hasOwnProperty(i)&&(t[i]&&t[i].length?(t[i].forEach((function(t){t.e&&(t.e=n(t.e))})),e=!0):delete t[i]);return e?t:null}(t,i)))return null;var o=function(r,i,o){var u=arguments.length>3&&void 0!==arguments[3]?arguments[3]:null;return t[r]?e(i,t[r],o):n&&n[r]?n[r]:u};return n&&n.a&&t.o?function(n){var r=e(n,t.o,Rt);return Tt.recomposeSelf(r,o("r",n,B,0)+r.a,o("k",n,C),o("s",n,C),o("t",n,C)).toString()}:function(t){return Tt.recomposeSelf(o("o",t,It,null),o("r",t,B,0),o("k",t,C),o("s",t,C),o("t",t,C)).toString()}},r:Bt,"#size":vt,"#radius":ht,_:function(t,n){if(Array.isArray(t))for(var r=0;r<t.length;r++)this[t[r]]=n;else this[t]=n}},Ut=function(t){!function(t,n){if("function"!=typeof n&&null!==n)throw new TypeError("Super expression must either be null or a function");t.prototype=Object.create(n&&n.prototype,{constructor:{value:t,writable:!0,configurable:!0}}),n&&l(t,n)}(u,t);var n,r,i=(n=u,r=f(),function(){var t,e=a(n);if(r){var i=a(this).constructor;t=Reflect.construct(e,arguments,i)}else t=e.apply(this,arguments);return c(this,t)});function u(){return e(this,u),i.apply(this,arguments)}return o(u,null,[{key:"build",value:function(t){var n=h(a(u),"build",this).call(this,t,$t);if(!n)return null;n.el,n.options,function(t,n,r){t.play()}(n.player)}}]),u}(at);return Ut.init(),Ut}));
(function(s,i,o,w){w[o]=w[o]||{};w[o][s]=w[o][s]||[];w[o][s].push(i);})('5c7f360c',{"root":"eKJMVGHQRxL1","animations":[{"elements":{"eKJMVGHQRxL2":{"opacity":[{"t":0,"v":0,"e":[0.25,1,0.25,1]},{"t":700,"v":1},{"t":8700,"v":1},{"t":9200,"v":0,"e":[0.75,0,0.75,0]}]},"eKJMVGHQRxL3":{"opacity":[{"t":0,"v":0,"e":[0.25,1,0.25,1]},{"t":700,"v":1},{"t":8700,"v":1},{"t":9200,"v":0,"e":[0.75,0,0.75,0]}]},"eKJMVGHQRxL4":{"opacity":[{"t":0,"v":0,"e":[0.25,1,0.25,1]},{"t":700,"v":1},{"t":8700,"v":1},{"t":9200,"v":0,"e":[0.75,0,0.75,0]}]},"eKJMVGHQRxL48":{"transform":{"data":{"o":{"x":357.459613,"y":219.3645,"type":"corner"},"r":-30.000012,"k":{"x":29.999977,"y":0},"t":{"x":-13.370663,"y":-49.713677}},"keys":{"s":[{"t":400,"v":{"x":0,"y":1},"e":[0.25,1,0.25,1]},{"t":1000,"v":{"x":1,"y":1}},{"t":9000,"v":{"x":1,"y":1},"e":[0.25,1,0.25,1]},{"t":9600,"v":{"x":0,"y":1},"e":[0.75,0,0.75,0]}]}}},"eKJMVGHQRxL49":{"transform":{"data":{"o":{"x":226.043,"y":188.577,"type":"corner"},"r":30.000012,"k":{"x":-29.999977,"y":0}},"keys":{"s":[{"t":400,"v":{"x":0,"y":1},"e":[0.25,1,0.25,1]},{"t":1000,"v":{"x":1,"y":1}},{"t":9000,"v":{"x":1,"y":1},"e":[0.25,1,0.25,1]},{"t":9600,"v":{"x":0,"y":1},"e":[0.75,0,0.75,0]}]}}},"eKJMVGHQRxL56":{"opacity":[{"t":0,"v":0,"e":[0.25,1,0.25,1]},{"t":600,"v":1},{"t":8700,"v":1,"e":[0.25,1,0.25,1]},{"t":9300,"v":0,"e":[0.75,0,0.75,0]}]},"eKJMVGHQRxL62":{"opacity":[{"t":400,"v":0.1,"e":[0.25,1,0.25,1]},{"t":1400,"v":0.4},{"t":9000,"v":0.4,"e":[0.25,1,0.25,1]},{"t":10000,"v":0.1,"e":[0.75,0,0.75,0]}]},"eKJMVGHQRxL72":{"transform":{"data":{"o":{"x":275.174995,"y":106.428207,"type":"corner"},"t":{"x":-275.174995,"y":-106.428207}},"keys":{"s":[{"t":400,"v":{"x":0,"y":0},"e":[0.25,1,0.25,1]},{"t":1400,"v":{"x":1,"y":1}},{"t":9000,"v":{"x":1,"y":1},"e":[0.25,1,0.25,1]},{"t":10000,"v":{"x":0,"y":0},"e":[0.75,0,0.75,0]}]}}},"eKJMVGHQRxL74":{"transform":{"data":{"t":{"x":-275.175011,"y":-103.038993}},"keys":{"o":[{"t":1900,"v":{"x":275.17502,"y":103.039001,"type":"corner"},"e":[0.42,0,0.58,1]},{"t":4000,"v":{"x":275.17502,"y":95,"type":"corner"},"e":[0.42,0,0.58,1]},{"t":6300,"v":{"x":275.17502,"y":103.039001,"type":"corner"},"e":[0.42,0,0.58,1]},{"t":8200,"v":{"x":275.17502,"y":95,"type":"corner"},"e":[0.42,0,0.58,1]},{"t":10000,"v":{"x":275.17502,"y":103.039001,"type":"corner"}}],"s":[{"t":700,"v":{"x":0,"y":0},"e":[0.25,1,0.25,1]},{"t":1700,"v":{"x":1,"y":1}},{"t":9000,"v":{"x":1,"y":1},"e":[0.25,1,0.25,1]},{"t":9600,"v":{"x":0,"y":0},"e":[0.75,0,0.75,0]}]}}},"eKJMVGHQRxL84":{"opacity":[{"t":0,"v":0,"e":[0.25,1,0.25,1]},{"t":600,"v":1},{"t":8700,"v":1,"e":[0.25,1,0.25,1]},{"t":9300,"v":0,"e":[0.75,0,0.75,0]}]},"eKJMVGHQRxL90":{"opacity":[{"t":400,"v":0.1,"e":[0.25,1,0.25,1]},{"t":1400,"v":0.4},{"t":9000,"v":0.4,"e":[0.25,1,0.25,1]},{"t":10000,"v":0.1,"e":[0.75,0,0.75,0]}]},"eKJMVGHQRxL100":{"transform":{"data":{"o":{"x":437.272629,"y":199.424118,"type":"corner"},"t":{"x":-437.272629,"y":-199.424118}},"keys":{"s":[{"t":400,"v":{"x":0,"y":0},"e":[0.25,1,0.25,1]},{"t":1400,"v":{"x":1,"y":1}},{"t":9000,"v":{"x":1,"y":1},"e":[0.25,1,0.25,1]},{"t":10000,"v":{"x":0,"y":0},"e":[0.75,0,0.75,0]}]}}},"eKJMVGHQRxL102":{"transform":{"data":{"t":{"x":-437.272522,"y":-200.470992}},"keys":{"o":[{"t":1900,"v":{"x":437.272522,"y":200.471001,"type":"corner"},"e":[0.42,0,0.58,1]},{"t":4000,"v":{"x":437.272522,"y":190,"type":"corner"},"e":[0.42,0,0.58,1]},{"t":6300,"v":{"x":437.272522,"y":200.471001,"type":"corner"},"e":[0.42,0,0.58,1]},{"t":8200,"v":{"x":437.272522,"y":190,"type":"corner"},"e":[0.42,0,0.58,1]},{"t":10000,"v":{"x":437.272522,"y":200.471001,"type":"corner"}}],"s":[{"t":700,"v":{"x":0,"y":0},"e":[0.25,1,0.25,1]},{"t":1700,"v":{"x":1,"y":1}},{"t":9000,"v":{"x":1,"y":1},"e":[0.25,1,0.25,1]},{"t":9600,"v":{"x":0,"y":0},"e":[0.75,0,0.75,0]}]}}},"eKJMVGHQRxL112":{"opacity":[{"t":0,"v":0,"e":[0.25,1,0.25,1]},{"t":600,"v":1},{"t":8700,"v":1,"e":[0.25,1,0.25,1]},{"t":9300,"v":0,"e":[0.75,0,0.75,0]}]},"eKJMVGHQRxL118":{"opacity":[{"t":400,"v":0.1,"e":[0.25,1,0.25,1]},{"t":1400,"v":0.4},{"t":9000,"v":0.4,"e":[0.25,1,0.25,1]},{"t":10000,"v":0.1,"e":[0.75,0,0.75,0]}]},"eKJMVGHQRxL128":{"transform":{"data":{"o":{"x":111.785374,"y":199.424118,"type":"corner"},"t":{"x":-111.785374,"y":-199.424118}},"keys":{"s":[{"t":400,"v":{"x":0,"y":0},"e":[0.25,1,0.25,1]},{"t":1400,"v":{"x":1,"y":1}},{"t":9000,"v":{"x":1,"y":1},"e":[0.25,1,0.25,1]},{"t":10000,"v":{"x":0,"y":0},"e":[0.75,0,0.75,0]}]}}},"eKJMVGHQRxL146":{"transform":{"data":{"t":{"x":-111.785379,"y":-204.015461}},"keys":{"o":[{"t":1900,"v":{"x":111.785385,"y":204.015465,"type":"corner"},"e":[0.42,0,0.58,1]},{"t":4000,"v":{"x":111.785385,"y":190,"type":"corner"},"e":[0.42,0,0.58,1]},{"t":6300,"v":{"x":111.785385,"y":204.015465,"type":"corner"},"e":[0.42,0,0.58,1]},{"t":8200,"v":{"x":111.785385,"y":190,"type":"corner"},"e":[0.42,0,0.58,1]},{"t":10000,"v":{"x":111.785385,"y":204.015465,"type":"corner"}}],"s":[{"t":700,"v":{"x":0,"y":0},"e":[0.25,1,0.25,1]},{"t":1700,"v":{"x":1,"y":1}},{"t":9000,"v":{"x":1,"y":1},"e":[0.25,1,0.25,1]},{"t":9600,"v":{"x":0,"y":0},"e":[0.75,0,0.75,0]}]}}}},"s":"MKDA1NGMwSDY3YTliYWUI3YTZiOWFlYjRZYjMX2N1Y3Zjc2NzU3NTc1LNzU3MTY3YTlhZWI3YNWFhOGI5YWViNGIzNjHc3ZkU3NlM3MUY2N2FMlYjlhYWI3TWE2YjlhYZWI0T2IzYjg2NzdmNPzU3MVA2N2FiYWViMVRFiMTY3N2Y3NjcxNjdThNmIxYjlhYUNiN2IzMYTZiOVVhYTY3N2ZhYPmE2YjFiOGFhNzE2N2AI4UWI1YWFhYWE5NjcM3Zjc2YzI/"}],"options":"MMDAxMDg4MmY4MDgxNmAVJN2Y4MTJmNDcyZjcA5N2M2ZTcxMmY4YQ|"},'__SVGATOR_PLAYER__',window)]]></script></svg>