<?xml version="1.0" standalone="no"?>
<!DOCTYPE svg PUBLIC "-//W3C//DTD SVG 20010904//EN"
 "http://www.w3.org/TR/2001/REC-SVG-20010904/DTD/svg10.dtd">
<svg version="1.0" xmlns="http://www.w3.org/2000/svg"
 width="260.000000pt" height="260.000000pt" viewBox="0 0 260.000000 260.000000"
 preserveAspectRatio="xMidYMid meet">
<metadata>
Created by potrace 1.14, written by Peter Selinger 2001-2017
</metadata>
<g transform="translate(0.000000,260.000000) scale(0.100000,-0.100000)"
fill="#000000" stroke="none">
<path d="M1190 2429 c0 -4 -12 -7 -27 -6 -53 0 -203 -42 -231 -66 -8 -6 -17
-11 -19 -9 -1 1 -5 1 -8 1 -3 -1 -9 -2 -13 -3 -5 0 -47 -24 -94 -53 -91 -56
-228 -182 -274 -254 -16 -24 -31 -46 -34 -49 -14 -12 -80 -151 -100 -210 -44
-128 -48 -191 -48 -764 0 -312 4 -557 9 -578 5 -20 24 -56 42 -80 69 -91 185
-120 285 -72 28 13 55 31 59 38 15 27 44 22 62 -9 35 -64 67 -97 122 -124 107
-53 237 -28 313 61 47 55 81 52 143 -10 56 -56 113 -79 188 -77 62 1 115 14
115 26 0 6 4 8 9 5 12 -8 96 78 111 113 17 41 32 43 71 10 19 -16 40 -29 47
-29 6 0 12 -5 12 -11 0 -6 9 -9 20 -6 11 3 20 1 20 -3 0 -9 89 -10 105 -1 6 3
18 6 28 6 10 0 22 7 27 15 5 8 10 11 10 6 0 -22 74 62 96 109 l23 49 -3 571
c-1 313 -6 584 -9 600 -65 314 -256 573 -523 708 -71 36 -155 67 -165 61 -4
-2 -10 0 -13 5 -5 8 -56 20 -121 28 -57 6 -235 8 -235 2z m-159 -668 c22 -1
64 -40 82 -77 12 -23 16 -61 15 -148 0 -111 -2 -118 -28 -155 -32 -44 -104
-76 -134 -59 -10 5 -20 7 -23 4 -3 -3 -24 13 -47 34 l-41 39 -3 112 c-5 142 1
169 43 215 19 21 35 35 35 30 0 -4 7 -3 16 2 9 5 28 8 42 6 15 -1 34 -2 43 -3z
m623 -3 c-3 -4 4 -8 15 -8 22 0 68 -51 77 -85 3 -13 4 -77 2 -142 -3 -116 -4
-121 -33 -156 -17 -20 -40 -36 -52 -36 -12 -1 -24 -5 -28 -10 -3 -6 -18 -6
-38 0 -17 6 -38 11 -45 13 -8 1 -18 9 -23 17 -5 8 -9 10 -9 4 -1 -5 -11 10
-24 35 -41 77 -34 277 12 330 9 11 20 20 25 20 5 0 14 6 21 13 14 13 108 18
100 5z"/>
</g>
</svg>
